<?xml version="1.0" standalone="no"?>
 <!DOCTYPE svg PUBLIC "-//W3C//DTD SVG 1.1//EN" 
 "http://www.w3.org/Graphics/SVG/1.1/DTD/svg11.dtd"> 
<svg
  xmlns:svg="http://www.w3.org/2000/svg"
  xmlns="http://www.w3.org/2000/svg"
  xmlns:xlink="http://www.w3.org/1999/xlink"
  version="1.1"
  width="243.0780mm" height="76.3778mm" viewBox="0.0000 0.0000 243.0780 76.3778">
<title>SVG Image created as minibaen r2-Edge_Cuts.svg date 2023/03/29 01:07:12 </title>
  <desc>Image generated by PCBNEW </desc>
<g style="fill:#000000; fill-opacity:1.0000;stroke:#000000; stroke-opacity:1.0000;
stroke-linecap:round; stroke-linejoin:round;"
 transform="translate(0 0) scale(1 1)">
</g>
<g style="fill:#000000; fill-opacity:0.0; 
stroke:#000000; stroke-width:0.0000; stroke-opacity:1; 
stroke-linecap:round; stroke-linejoin:round;">
</g>
<g style="fill:#000000; fill-opacity:0.0; 
stroke:#000000; stroke-width:0.2000; stroke-opacity:1; 
stroke-linecap:round; stroke-linejoin:round;">
<circle cx="138.0285" cy="38.2675" r="2.0000" /> 
<circle cx="31.3412" cy="19.1675" r="2.0000" /> 
<circle cx="107.5412" cy="19.1675" r="2.0000" /> 
<circle cx="29.7912" cy="53.9190" r="2.0000" /> 
<path d="M224.2887 41.2250
L224.2887 54.2250
" />
<path d="M238.2887 54.2250
L238.2887 41.2250
" />
<path d="M237.7887 40.7250
L224.7887 40.7250
" />
<path d="M224.7887 54.7250
L237.7887 54.7250
" />
<path d="M224.7887 40.7250 A0.5000 0.5000 0.0 0 0 224.2887 41.2250" />
<path d="M238.2887 41.2250 A0.5000 0.5000 0.0 0 0 237.7887 40.7250" />
<path d="M237.7887 54.7250 A0.5000 0.5000 0.0 0 0 238.2887 54.2250" />
<path d="M224.2887 54.2250 A0.5000 0.5000 0.0 0 0 224.7887 54.7250" />
<path d="M203.2737 41.2250
L203.2737 54.2250
" />
<path d="M217.2737 54.2250
L217.2737 41.2250
" />
<path d="M216.7737 40.7250
L203.7737 40.7250
" />
<path d="M203.7737 54.7250
L216.7737 54.7250
" />
<path d="M203.7737 40.7250 A0.5000 0.5000 0.0 0 0 203.2737 41.2250" />
<path d="M217.2737 41.2250 A0.5000 0.5000 0.0 0 0 216.7737 40.7250" />
<path d="M216.7737 54.7250 A0.5000 0.5000 0.0 0 0 217.2737 54.2250" />
<path d="M203.2737 54.2250 A0.5000 0.5000 0.0 0 0 203.7737 54.7250" />
<path d="M184.5938 41.2250
L184.5938 54.2250
" />
<path d="M198.5938 54.2250
L198.5938 41.2250
" />
<path d="M198.0938 40.7250
L185.0938 40.7250
" />
<path d="M185.0938 54.7250
L198.0938 54.7250
" />
<path d="M185.0938 40.7250 A0.5000 0.5000 0.0 0 0 184.5938 41.2250" />
<path d="M198.5938 41.2250 A0.5000 0.5000 0.0 0 0 198.0938 40.7250" />
<path d="M198.0938 54.7250 A0.5000 0.5000 0.0 0 0 198.5938 54.2250" />
<path d="M184.5938 54.2250 A0.5000 0.5000 0.0 0 0 185.0938 54.7250" />
<path d="M165.9137 41.2250
L165.9137 54.2250
" />
<path d="M179.9137 54.2250
L179.9137 41.2250
" />
<path d="M179.4137 40.7250
L166.4137 40.7250
" />
<path d="M166.4137 54.7250
L179.4137 54.7250
" />
<path d="M166.4137 40.7250 A0.5000 0.5000 0.0 0 0 165.9137 41.2250" />
<path d="M179.9137 41.2250 A0.5000 0.5000 0.0 0 0 179.4137 40.7250" />
<path d="M179.4137 54.7250 A0.5000 0.5000 0.0 0 0 179.9137 54.2250" />
<path d="M165.9137 54.2250 A0.5000 0.5000 0.0 0 0 166.4137 54.7250" />
<path d="M147.2337 41.2250
L147.2337 54.2250
" />
<path d="M161.2337 54.2250
L161.2337 41.2250
" />
<path d="M160.7337 40.7250
L147.7337 40.7250
" />
<path d="M147.7337 54.7250
L160.7337 54.7250
" />
<path d="M147.7337 40.7250 A0.5000 0.5000 0.0 0 0 147.2337 41.2250" />
<path d="M161.2337 41.2250 A0.5000 0.5000 0.0 0 0 160.7337 40.7250" />
<path d="M160.7337 54.7250 A0.5000 0.5000 0.0 0 0 161.2337 54.2250" />
<path d="M147.2337 54.2250 A0.5000 0.5000 0.0 0 0 147.7337 54.7250" />
<path d="M128.5538 41.2250
L128.5538 54.2250
" />
<path d="M142.5537 54.2250
L142.5537 41.2250
" />
<path d="M142.0537 40.7250
L129.0538 40.7250
" />
<path d="M129.0538 54.7250
L142.0537 54.7250
" />
<path d="M129.0538 40.7250 A0.5000 0.5000 0.0 0 0 128.5538 41.2250" />
<path d="M142.5537 41.2250 A0.5000 0.5000 0.0 0 0 142.0537 40.7250" />
<path d="M142.0537 54.7250 A0.5000 0.5000 0.0 0 0 142.5537 54.2250" />
<path d="M128.5538 54.2250 A0.5000 0.5000 0.0 0 0 129.0538 54.7250" />
<path d="M109.8738 41.2250
L109.8738 54.2250
" />
<path d="M123.8738 54.2250
L123.8738 41.2250
" />
<path d="M123.3738 40.7250
L110.3738 40.7250
" />
<path d="M110.3738 54.7250
L123.3738 54.7250
" />
<path d="M110.3738 40.7250 A0.5000 0.5000 0.0 0 0 109.8738 41.2250" />
<path d="M123.8738 41.2250 A0.5000 0.5000 0.0 0 0 123.3738 40.7250" />
<path d="M123.3738 54.7250 A0.5000 0.5000 0.0 0 0 123.8738 54.2250" />
<path d="M109.8738 54.2250 A0.5000 0.5000 0.0 0 0 110.3738 54.7250" />
<path d="M91.1937 41.2250
L91.1937 54.2250
" />
<path d="M105.1937 54.2250
L105.1937 41.2250
" />
<path d="M104.6937 40.7250
L91.6937 40.7250
" />
<path d="M91.6937 54.7250
L104.6937 54.7250
" />
<path d="M91.6937 40.7250 A0.5000 0.5000 0.0 0 0 91.1937 41.2250" />
<path d="M105.1937 41.2250 A0.5000 0.5000 0.0 0 0 104.6937 40.7250" />
<path d="M104.6937 54.7250 A0.5000 0.5000 0.0 0 0 105.1937 54.2250" />
<path d="M91.1937 54.2250 A0.5000 0.5000 0.0 0 0 91.6937 54.7250" />
<path d="M72.5138 41.2250
L72.5138 54.2250
" />
<path d="M86.5138 54.2250
L86.5138 41.2250
" />
<path d="M86.0138 40.7250
L73.0138 40.7250
" />
<path d="M73.0138 54.7250
L86.0138 54.7250
" />
<path d="M73.0138 40.7250 A0.5000 0.5000 0.0 0 0 72.5138 41.2250" />
<path d="M86.5138 41.2250 A0.5000 0.5000 0.0 0 0 86.0138 40.7250" />
<path d="M86.0138 54.7250 A0.5000 0.5000 0.0 0 0 86.5138 54.2250" />
<path d="M72.5138 54.2250 A0.5000 0.5000 0.0 0 0 73.0138 54.7250" />
<path d="M53.8337 41.2250
L53.8337 54.2250
" />
<path d="M67.8337 54.2250
L67.8337 41.2250
" />
<path d="M67.3337 40.7250
L54.3337 40.7250
" />
<path d="M54.3337 54.7250
L67.3337 54.7250
" />
<path d="M54.3337 40.7250 A0.5000 0.5000 0.0 0 0 53.8337 41.2250" />
<path d="M67.8337 41.2250 A0.5000 0.5000 0.0 0 0 67.3337 40.7250" />
<path d="M67.3337 54.7250 A0.5000 0.5000 0.0 0 0 67.8337 54.2250" />
<path d="M53.8337 54.2250 A0.5000 0.5000 0.0 0 0 54.3337 54.7250" />
<path d="M35.1537 41.2250
L35.1537 54.2250
" />
<path d="M49.1537 54.2250
L49.1537 41.2250
" />
<path d="M48.6537 40.7250
L35.6537 40.7250
" />
<path d="M35.6537 54.7250
L48.6537 54.7250
" />
<path d="M35.6537 40.7250 A0.5000 0.5000 0.0 0 0 35.1537 41.2250" />
<path d="M49.1537 41.2250 A0.5000 0.5000 0.0 0 0 48.6537 40.7250" />
<path d="M48.6537 54.7250 A0.5000 0.5000 0.0 0 0 49.1537 54.2250" />
<path d="M35.1537 54.2250 A0.5000 0.5000 0.0 0 0 35.6537 54.7250" />
<path d="M9.4688 41.2250
L9.4688 54.2250
" />
<path d="M23.4688 54.2250
L23.4688 41.2250
" />
<path d="M22.9688 40.7250
L9.9688 40.7250
" />
<path d="M9.9688 54.7250
L22.9688 54.7250
" />
<path d="M9.9688 40.7250 A0.5000 0.5000 0.0 0 0 9.4688 41.2250" />
<path d="M23.4688 41.2250 A0.5000 0.5000 0.0 0 0 22.9688 40.7250" />
<path d="M22.9688 54.7250 A0.5000 0.5000 0.0 0 0 23.4688 54.2250" />
<path d="M9.4688 54.2250 A0.5000 0.5000 0.0 0 0 9.9688 54.7250" />
<path d="M219.6187 22.1750
L219.6187 35.1750
" />
<path d="M233.6187 35.1750
L233.6187 22.1750
" />
<path d="M233.1187 21.6750
L220.1187 21.6750
" />
<path d="M220.1187 35.6750
L233.1187 35.6750
" />
<path d="M220.1187 21.6750 A0.5000 0.5000 0.0 0 0 219.6187 22.1750" />
<path d="M233.6187 22.1750 A0.5000 0.5000 0.0 0 0 233.1187 21.6750" />
<path d="M233.1187 35.6750 A0.5000 0.5000 0.0 0 0 233.6187 35.1750" />
<path d="M219.6187 35.1750 A0.5000 0.5000 0.0 0 0 220.1187 35.6750" />
<path d="M193.9338 22.1750
L193.9338 35.1750
" />
<path d="M207.9338 35.1750
L207.9338 22.1750
" />
<path d="M207.4338 21.6750
L194.4338 21.6750
" />
<path d="M194.4338 35.6750
L207.4338 35.6750
" />
<path d="M194.4338 21.6750 A0.5000 0.5000 0.0 0 0 193.9338 22.1750" />
<path d="M207.9338 22.1750 A0.5000 0.5000 0.0 0 0 207.4338 21.6750" />
<path d="M207.4338 35.6750 A0.5000 0.5000 0.0 0 0 207.9338 35.1750" />
<path d="M193.9338 35.1750 A0.5000 0.5000 0.0 0 0 194.4338 35.6750" />
<path d="M175.2537 22.1750
L175.2537 35.1750
" />
<path d="M189.2537 35.1750
L189.2537 22.1750
" />
<path d="M188.7537 21.6750
L175.7537 21.6750
" />
<path d="M175.7537 35.6750
L188.7537 35.6750
" />
<path d="M175.7537 21.6750 A0.5000 0.5000 0.0 0 0 175.2537 22.1750" />
<path d="M189.2537 22.1750 A0.5000 0.5000 0.0 0 0 188.7537 21.6750" />
<path d="M188.7537 35.6750 A0.5000 0.5000 0.0 0 0 189.2537 35.1750" />
<path d="M175.2537 35.1750 A0.5000 0.5000 0.0 0 0 175.7537 35.6750" />
<path d="M156.5737 22.1750
L156.5737 35.1750
" />
<path d="M170.5737 35.1750
L170.5737 22.1750
" />
<path d="M170.0737 21.6750
L157.0737 21.6750
" />
<path d="M157.0737 35.6750
L170.0737 35.6750
" />
<path d="M157.0737 21.6750 A0.5000 0.5000 0.0 0 0 156.5737 22.1750" />
<path d="M170.5737 22.1750 A0.5000 0.5000 0.0 0 0 170.0737 21.6750" />
<path d="M170.0737 35.6750 A0.5000 0.5000 0.0 0 0 170.5737 35.1750" />
<path d="M156.5737 35.1750 A0.5000 0.5000 0.0 0 0 157.0737 35.6750" />
<path d="M137.8937 22.1750
L137.8937 35.1750
" />
<path d="M151.8937 35.1750
L151.8937 22.1750
" />
<path d="M151.3937 21.6750
L138.3937 21.6750
" />
<path d="M138.3937 35.6750
L151.3937 35.6750
" />
<path d="M138.3937 21.6750 A0.5000 0.5000 0.0 0 0 137.8937 22.1750" />
<path d="M151.8937 22.1750 A0.5000 0.5000 0.0 0 0 151.3937 21.6750" />
<path d="M151.3937 35.6750 A0.5000 0.5000 0.0 0 0 151.8937 35.1750" />
<path d="M137.8937 35.1750 A0.5000 0.5000 0.0 0 0 138.3937 35.6750" />
<path d="M119.2137 22.1750
L119.2137 35.1750
" />
<path d="M133.2138 35.1750
L133.2138 22.1750
" />
<path d="M132.7138 21.6750
L119.7137 21.6750
" />
<path d="M119.7137 35.6750
L132.7138 35.6750
" />
<path d="M119.7137 21.6750 A0.5000 0.5000 0.0 0 0 119.2137 22.1750" />
<path d="M133.2138 22.1750 A0.5000 0.5000 0.0 0 0 132.7138 21.6750" />
<path d="M132.7138 35.6750 A0.5000 0.5000 0.0 0 0 133.2138 35.1750" />
<path d="M119.2137 35.1750 A0.5000 0.5000 0.0 0 0 119.7137 35.6750" />
<path d="M100.5337 22.1750
L100.5337 35.1750
" />
<path d="M114.5337 35.1750
L114.5337 22.1750
" />
<path d="M114.0337 21.6750
L101.0337 21.6750
" />
<path d="M101.0337 35.6750
L114.0337 35.6750
" />
<path d="M101.0337 21.6750 A0.5000 0.5000 0.0 0 0 100.5337 22.1750" />
<path d="M114.5337 22.1750 A0.5000 0.5000 0.0 0 0 114.0337 21.6750" />
<path d="M114.0337 35.6750 A0.5000 0.5000 0.0 0 0 114.5337 35.1750" />
<path d="M100.5337 35.1750 A0.5000 0.5000 0.0 0 0 101.0337 35.6750" />
<path d="M81.8537 22.1750
L81.8537 35.1750
" />
<path d="M95.8537 35.1750
L95.8537 22.1750
" />
<path d="M95.3537 21.6750
L82.3537 21.6750
" />
<path d="M82.3537 35.6750
L95.3537 35.6750
" />
<path d="M82.3537 21.6750 A0.5000 0.5000 0.0 0 0 81.8537 22.1750" />
<path d="M95.8537 22.1750 A0.5000 0.5000 0.0 0 0 95.3537 21.6750" />
<path d="M95.3537 35.6750 A0.5000 0.5000 0.0 0 0 95.8537 35.1750" />
<path d="M81.8537 35.1750 A0.5000 0.5000 0.0 0 0 82.3537 35.6750" />
<path d="M63.1737 22.1750
L63.1737 35.1750
" />
<path d="M77.1737 35.1750
L77.1737 22.1750
" />
<path d="M76.6737 21.6750
L63.6737 21.6750
" />
<path d="M63.6737 35.6750
L76.6737 35.6750
" />
<path d="M63.6737 21.6750 A0.5000 0.5000 0.0 0 0 63.1737 22.1750" />
<path d="M77.1737 22.1750 A0.5000 0.5000 0.0 0 0 76.6737 21.6750" />
<path d="M76.6737 35.6750 A0.5000 0.5000 0.0 0 0 77.1737 35.1750" />
<path d="M63.1737 35.1750 A0.5000 0.5000 0.0 0 0 63.6737 35.6750" />
<path d="M44.4937 22.1750
L44.4937 35.1750
" />
<path d="M58.4937 35.1750
L58.4937 22.1750
" />
<path d="M57.9937 21.6750
L44.9937 21.6750
" />
<path d="M44.9937 35.6750
L57.9937 35.6750
" />
<path d="M44.9937 21.6750 A0.5000 0.5000 0.0 0 0 44.4937 22.1750" />
<path d="M58.4937 22.1750 A0.5000 0.5000 0.0 0 0 57.9937 21.6750" />
<path d="M57.9937 35.6750 A0.5000 0.5000 0.0 0 0 58.4937 35.1750" />
<path d="M44.4937 35.1750 A0.5000 0.5000 0.0 0 0 44.9937 35.6750" />
<path d="M25.8137 22.1750
L25.8137 35.1750
" />
<path d="M39.8137 35.1750
L39.8137 22.1750
" />
<path d="M39.3137 21.6750
L26.3137 21.6750
" />
<path d="M26.3137 35.6750
L39.3137 35.6750
" />
<path d="M26.3137 21.6750 A0.5000 0.5000 0.0 0 0 25.8137 22.1750" />
<path d="M39.8137 22.1750 A0.5000 0.5000 0.0 0 0 39.3137 21.6750" />
<path d="M39.3137 35.6750 A0.5000 0.5000 0.0 0 0 39.8137 35.1750" />
<path d="M25.8137 35.1750 A0.5000 0.5000 0.0 0 0 26.3137 35.6750" />
<path d="M4.7988 22.1750
L4.7988 35.1750
" />
<path d="M18.7987 35.1750
L18.7987 22.1750
" />
<path d="M18.2987 21.6750
L5.2988 21.6750
" />
<path d="M5.2988 35.6750
L18.2987 35.6750
" />
<path d="M5.2987 21.6750 A0.5000 0.5000 0.0 0 0 4.7988 22.1750" />
<path d="M18.7987 22.1750 A0.5000 0.5000 0.0 0 0 18.2987 21.6750" />
<path d="M18.2987 35.6750 A0.5000 0.5000 0.0 0 0 18.7987 35.1750" />
<path d="M4.7988 35.1750 A0.5000 0.5000 0.0 0 0 5.2987 35.6750" />
<path d="M226.6238 3.1250
L226.6238 16.1250
" />
<path d="M240.6238 16.1250
L240.6238 3.1250
" />
<path d="M240.1238 2.6250
L227.1238 2.6250
" />
<path d="M227.1238 16.6250
L240.1238 16.6250
" />
<path d="M227.1238 2.6250 A0.5000 0.5000 0.0 0 0 226.6238 3.1250" />
<path d="M240.6238 3.1250 A0.5000 0.5000 0.0 0 0 240.1238 2.6250" />
<path d="M240.1238 16.6250 A0.5000 0.5000 0.0 0 0 240.6238 16.1250" />
<path d="M226.6238 16.1250 A0.5000 0.5000 0.0 0 0 227.1238 16.6250" />
<path d="M207.9437 3.1250
L207.9437 16.1250
" />
<path d="M221.9437 16.1250
L221.9437 3.1250
" />
<path d="M221.4437 2.6250
L208.4437 2.6250
" />
<path d="M208.4437 16.6250
L221.4437 16.6250
" />
<path d="M208.4437 2.6250 A0.5000 0.5000 0.0 0 0 207.9437 3.1250" />
<path d="M221.9437 3.1250 A0.5000 0.5000 0.0 0 0 221.4437 2.6250" />
<path d="M221.4437 16.6250 A0.5000 0.5000 0.0 0 0 221.9437 16.1250" />
<path d="M207.9437 16.1250 A0.5000 0.5000 0.0 0 0 208.4437 16.6250" />
<path d="M189.2637 3.1250
L189.2637 16.1250
" />
<path d="M203.2637 16.1250
L203.2637 3.1250
" />
<path d="M202.7637 2.6250
L189.7637 2.6250
" />
<path d="M189.7637 16.6250
L202.7637 16.6250
" />
<path d="M189.7637 2.6250 A0.5000 0.5000 0.0 0 0 189.2637 3.1250" />
<path d="M203.2637 3.1250 A0.5000 0.5000 0.0 0 0 202.7637 2.6250" />
<path d="M202.7637 16.6250 A0.5000 0.5000 0.0 0 0 203.2637 16.1250" />
<path d="M189.2637 16.1250 A0.5000 0.5000 0.0 0 0 189.7637 16.6250" />
<path d="M170.5837 3.1250
L170.5837 16.1250
" />
<path d="M184.5837 16.1250
L184.5837 3.1250
" />
<path d="M184.0837 2.6250
L171.0837 2.6250
" />
<path d="M171.0837 16.6250
L184.0837 16.6250
" />
<path d="M171.0837 2.6250 A0.5000 0.5000 0.0 0 0 170.5837 3.1250" />
<path d="M184.5837 3.1250 A0.5000 0.5000 0.0 0 0 184.0837 2.6250" />
<path d="M184.0837 16.6250 A0.5000 0.5000 0.0 0 0 184.5837 16.1250" />
<path d="M170.5837 16.1250 A0.5000 0.5000 0.0 0 0 171.0837 16.6250" />
<path d="M151.9038 3.1250
L151.9038 16.1250
" />
<path d="M165.9038 16.1250
L165.9038 3.1250
" />
<path d="M165.4038 2.6250
L152.4038 2.6250
" />
<path d="M152.4038 16.6250
L165.4038 16.6250
" />
<path d="M152.4038 2.6250 A0.5000 0.5000 0.0 0 0 151.9038 3.1250" />
<path d="M165.9038 3.1250 A0.5000 0.5000 0.0 0 0 165.4038 2.6250" />
<path d="M165.4038 16.6250 A0.5000 0.5000 0.0 0 0 165.9038 16.1250" />
<path d="M151.9038 16.1250 A0.5000 0.5000 0.0 0 0 152.4038 16.6250" />
<path d="M133.2237 3.1250
L133.2237 16.1250
" />
<path d="M147.2237 16.1250
L147.2237 3.1250
" />
<path d="M146.7237 2.6250
L133.7237 2.6250
" />
<path d="M133.7237 16.6250
L146.7237 16.6250
" />
<path d="M133.7237 2.6250 A0.5000 0.5000 0.0 0 0 133.2237 3.1250" />
<path d="M147.2237 3.1250 A0.5000 0.5000 0.0 0 0 146.7237 2.6250" />
<path d="M146.7237 16.6250 A0.5000 0.5000 0.0 0 0 147.2237 16.1250" />
<path d="M133.2237 16.1250 A0.5000 0.5000 0.0 0 0 133.7237 16.6250" />
<path d="M114.5437 3.1250
L114.5437 16.1250
" />
<path d="M128.5437 16.1250
L128.5437 3.1250
" />
<path d="M128.0437 2.6250
L115.0437 2.6250
" />
<path d="M115.0437 16.6250
L128.0437 16.6250
" />
<path d="M115.0437 2.6250 A0.5000 0.5000 0.0 0 0 114.5437 3.1250" />
<path d="M128.5437 3.1250 A0.5000 0.5000 0.0 0 0 128.0437 2.6250" />
<path d="M128.0437 16.6250 A0.5000 0.5000 0.0 0 0 128.5437 16.1250" />
<path d="M114.5437 16.1250 A0.5000 0.5000 0.0 0 0 115.0437 16.6250" />
<path d="M95.8637 3.1250
L95.8637 16.1250
" />
<path d="M109.8637 16.1250
L109.8637 3.1250
" />
<path d="M109.3637 2.6250
L96.3637 2.6250
" />
<path d="M96.3637 16.6250
L109.3637 16.6250
" />
<path d="M96.3637 2.6250 A0.5000 0.5000 0.0 0 0 95.8637 3.1250" />
<path d="M109.8637 3.1250 A0.5000 0.5000 0.0 0 0 109.3637 2.6250" />
<path d="M109.3637 16.6250 A0.5000 0.5000 0.0 0 0 109.8637 16.1250" />
<path d="M95.8637 16.1250 A0.5000 0.5000 0.0 0 0 96.3637 16.6250" />
<path d="M77.1838 3.1250
L77.1838 16.1250
" />
<path d="M91.1837 16.1250
L91.1837 3.1250
" />
<path d="M90.6837 2.6250
L77.6838 2.6250
" />
<path d="M77.6838 16.6250
L90.6837 16.6250
" />
<path d="M77.6838 2.6250 A0.5000 0.5000 0.0 0 0 77.1838 3.1250" />
<path d="M91.1837 3.1250 A0.5000 0.5000 0.0 0 0 90.6837 2.6250" />
<path d="M90.6837 16.6250 A0.5000 0.5000 0.0 0 0 91.1837 16.1250" />
<path d="M77.1838 16.1250 A0.5000 0.5000 0.0 0 0 77.6838 16.6250" />
<path d="M58.5037 3.1250
L58.5037 16.1250
" />
<path d="M72.5037 16.1250
L72.5037 3.1250
" />
<path d="M72.0037 2.6250
L59.0037 2.6250
" />
<path d="M59.0037 16.6250
L72.0037 16.6250
" />
<path d="M59.0037 2.6250 A0.5000 0.5000 0.0 0 0 58.5037 3.1250" />
<path d="M72.5037 3.1250 A0.5000 0.5000 0.0 0 0 72.0037 2.6250" />
<path d="M72.0037 16.6250 A0.5000 0.5000 0.0 0 0 72.5037 16.1250" />
<path d="M58.5037 16.1250 A0.5000 0.5000 0.0 0 0 59.0037 16.6250" />
<path d="M39.8237 3.1250
L39.8237 16.1250
" />
<path d="M53.8237 16.1250
L53.8237 3.1250
" />
<path d="M53.3237 2.6250
L40.3237 2.6250
" />
<path d="M40.3237 16.6250
L53.3237 16.6250
" />
<path d="M40.3237 2.6250 A0.5000 0.5000 0.0 0 0 39.8237 3.1250" />
<path d="M53.8237 3.1250 A0.5000 0.5000 0.0 0 0 53.3237 2.6250" />
<path d="M53.3237 16.6250 A0.5000 0.5000 0.0 0 0 53.8237 16.1250" />
<path d="M39.8237 16.1250 A0.5000 0.5000 0.0 0 0 40.3237 16.6250" />
<path d="M21.1438 3.1250
L21.1438 16.1250
" />
<path d="M35.1437 16.1250
L35.1437 3.1250
" />
<path d="M34.6437 2.6250
L21.6438 2.6250
" />
<path d="M21.6438 16.6250
L34.6437 16.6250
" />
<path d="M21.6438 2.6250 A0.5000 0.5000 0.0 0 0 21.1438 3.1250" />
<path d="M35.1437 3.1250 A0.5000 0.5000 0.0 0 0 34.6437 2.6250" />
<path d="M34.6437 16.6250 A0.5000 0.5000 0.0 0 0 35.1437 16.1250" />
<path d="M21.1438 16.1250 A0.5000 0.5000 0.0 0 0 21.6438 16.6250" />
<path d="M2.4638 3.1250
L2.4638 16.1250
" />
<path d="M16.4638 16.1250
L16.4638 3.1250
" />
<path d="M15.9637 2.6250
L2.9637 2.6250
" />
<path d="M2.9637 16.6250
L15.9637 16.6250
" />
<path d="M2.9637 2.6250 A0.5000 0.5000 0.0 0 0 2.4638 3.1250" />
<path d="M16.4637 3.1250 A0.5000 0.5000 0.0 0 0 15.9637 2.6250" />
<path d="M15.9637 16.6250 A0.5000 0.5000 0.0 0 0 16.4637 16.1250" />
<path d="M2.4638 16.1250 A0.5000 0.5000 0.0 0 0 2.9637 16.6250" />
<path d="M237.9200 73.2750
L237.9200 60.2750
" />
<path d="M237.4200 59.7750
L235.0387 59.7750
" />
<path d="M235.0387 73.7750
L237.4200 73.7750
" />
<path d="M237.9200 60.2750 A0.5000 0.5000 0.0 0 0 237.4200 59.7750" />
<path d="M237.4200 73.7750 A0.5000 0.5000 0.0 0 0 237.9200 73.2750" />
<path d="M221.5387 60.2750
L221.5387 73.2750
" />
<path d="M224.4200 59.7750
L222.0387 59.7750
" />
<path d="M235.0387 59.7750
L224.4200 59.7750
" />
<path d="M224.4200 73.7750
L235.0387 73.7750
" />
<path d="M222.0387 73.7750
L224.4200 73.7750
" />
<path d="M222.0387 59.7750 A0.5000 0.5000 0.0 0 0 221.5387 60.2750" />
<path d="M221.5387 73.2750 A0.5000 0.5000 0.0 0 0 222.0387 73.7750" />
<path d="M216.4887 73.2750
L216.4887 60.2750
" />
<path d="M215.9887 59.7750
L211.2262 59.7750
" />
<path d="M211.2262 73.7750
L215.9887 73.7750
" />
<path d="M216.4887 60.2750 A0.5000 0.5000 0.0 0 0 215.9887 59.7750" />
<path d="M215.9887 73.7750 A0.5000 0.5000 0.0 0 0 216.4887 73.2750" />
<path d="M197.7262 60.2750
L197.7262 73.2750
" />
<path d="M202.9887 59.7750
L198.2262 59.7750
" />
<path d="M211.2262 59.7750
L202.9887 59.7750
" />
<path d="M202.9887 73.7750
L211.2262 73.7750
" />
<path d="M198.2262 73.7750
L202.9887 73.7750
" />
<path d="M198.2262 59.7750 A0.5000 0.5000 0.0 0 0 197.7262 60.2750" />
<path d="M197.7262 73.2750 A0.5000 0.5000 0.0 0 0 198.2262 73.7750" />
<path d="M195.0575 73.2750
L195.0575 60.2750
" />
<path d="M194.5575 59.7750
L187.4137 59.7750
" />
<path d="M187.4137 73.7750
L194.5575 73.7750
" />
<path d="M195.0574 60.2750 A0.5000 0.5000 0.0 0 0 194.5575 59.7750" />
<path d="M194.5575 73.7750 A0.5000 0.5000 0.0 0 0 195.0575 73.2750" />
<path d="M173.9137 60.2750
L173.9137 73.2750
" />
<path d="M181.5575 59.7750
L174.4137 59.7750
" />
<path d="M187.4137 59.7750
L181.5575 59.7750
" />
<path d="M181.5575 73.7750
L187.4137 73.7750
" />
<path d="M174.4137 73.7750
L181.5575 73.7750
" />
<path d="M174.4137 59.7750 A0.5000 0.5000 0.0 0 0 173.9137 60.2750" />
<path d="M173.9137 73.2750 A0.5000 0.5000 0.0 0 0 174.4137 73.7750" />
<path d="M141.5195 59.7750
L141.5195 59.2750
" />
<path d="M134.5195 59.2750
L134.5195 59.7750
" />
<path d="M141.0195 58.7750
L135.0195 58.7750
" />
<path d="M135.0195 58.7750 A0.5000 0.5000 0.0 0 0 134.5195 59.2750" />
<path d="M141.5195 59.2750 A0.5000 0.5000 0.0 0 0 141.0195 58.7750" />
<path d="M165.3955 73.2750
L165.3955 59.2750
" />
<path d="M158.3955 59.2750
L158.3955 73.2750
" />
<path d="M158.8955 73.7750
L164.8955 73.7750
" />
<path d="M164.8955 58.7750
L158.8955 58.7750
" />
<path d="M164.8955 73.7750 A0.5000 0.5000 0.0 0 0 165.3955 73.2750" />
<path d="M158.3955 73.2750 A0.5000 0.5000 0.0 0 0 158.8955 73.7750" />
<path d="M158.8955 58.7750 A0.5000 0.5000 0.0 0 0 158.3955 59.2750" />
<path d="M165.3954 59.2750 A0.5000 0.5000 0.0 0 0 164.8955 58.7750" />
<path d="M156.9575 73.2750
L156.9575 60.2750
" />
<path d="M148.8705 59.7750
L146.9325 59.7750
" />
<path d="M156.4575 59.7750
L155.8705 59.7750
" />
<path d="M155.3705 73.7750
L156.4575 73.7750
" />
<path d="M146.9325 73.7750
L149.3705 73.7750
" />
<path d="M156.9574 60.2750 A0.5000 0.5000 0.0 0 0 156.4575 59.7750" />
<path d="M156.4575 73.7750 A0.5000 0.5000 0.0 0 0 156.9575 73.2750" />
<path d="M131.9945 73.2750
L131.9945 59.2750
" />
<path d="M124.9945 59.2750
L124.9945 73.2750
" />
<path d="M125.4945 73.7750
L131.4945 73.7750
" />
<path d="M131.4945 58.7750
L125.4945 58.7750
" />
<path d="M131.4945 73.7750 A0.5000 0.5000 0.0 0 0 131.9945 73.2750" />
<path d="M124.9945 73.2750 A0.5000 0.5000 0.0 0 0 125.4945 73.7750" />
<path d="M125.4945 58.7750 A0.5000 0.5000 0.0 0 0 124.9945 59.2750" />
<path d="M131.9945 59.2750 A0.5000 0.5000 0.0 0 0 131.4945 58.7750" />
<path d="M155.8705 59.7750
L155.8705 59.2750
" />
<path d="M148.8705 59.2750
L148.8705 59.7750
" />
<path d="M149.3705 73.7750
L155.3705 73.7750
" />
<path d="M155.3705 58.7750
L149.3705 58.7750
" />
<path d="M149.3705 58.7750 A0.5000 0.5000 0.0 0 0 148.8705 59.2750" />
<path d="M155.8705 59.2750 A0.5000 0.5000 0.0 0 0 155.3705 58.7750" />
<path d="M133.4325 60.2750
L133.4325 73.2750
" />
<path d="M134.5195 59.7750
L133.9325 59.7750
" />
<path d="M143.4575 59.7750
L141.5195 59.7750
" />
<path d="M146.9325 59.7750
L143.4575 59.7750
" />
<path d="M141.0195 73.7750
L143.4575 73.7750
" />
<path d="M135.0195 73.7750
L141.0195 73.7750
" />
<path d="M143.4575 73.7750
L146.9325 73.7750
" />
<path d="M133.9325 73.7750
L135.0195 73.7750
" />
<path d="M133.9325 59.7750 A0.5000 0.5000 0.0 0 0 133.4325 60.2750" />
<path d="M133.4325 73.2750 A0.5000 0.5000 0.0 0 0 133.9325 73.7750" />
<path d="M86.7507 73.2750
L86.7507 59.2750
" />
<path d="M86.2507 73.7750 A0.5000 0.5000 0.0 0 0 86.7507 73.2750" />
<path d="M86.7507 59.2750 A0.5000 0.5000 0.0 0 0 86.2507 58.7750" />
<path d="M103.6268 59.2750
L103.6268 73.2750
" />
<path d="M104.1268 73.7750
L117.2387 73.7750
" />
<path d="M117.2387 58.7750
L104.1268 58.7750
" />
<path d="M103.6268 73.2750 A0.5000 0.5000 0.0 0 0 104.1268 73.7750" />
<path d="M104.1268 58.7750 A0.5000 0.5000 0.0 0 0 103.6268 59.2750" />
<path d="M72.6388 59.2750
L72.6388 73.2750
" />
<path d="M73.1388 73.7750
L86.2507 73.7750
" />
<path d="M86.2507 58.7750
L73.1388 58.7750
" />
<path d="M72.6388 73.2750 A0.5000 0.5000 0.0 0 0 73.1388 73.7750" />
<path d="M73.1388 58.7750 A0.5000 0.5000 0.0 0 0 72.6388 59.2750" />
<path d="M117.7387 73.2750
L117.7387 59.2750
" />
<path d="M117.2387 73.7750 A0.5000 0.5000 0.0 0 0 117.7387 73.2750" />
<path d="M117.7387 59.2750 A0.5000 0.5000 0.0 0 0 117.2387 58.7750" />
<path d="M88.1887 60.2750
L88.1887 73.2750
" />
<path d="M102.1887 73.2750
L102.1887 60.2750
" />
<path d="M101.6887 59.7750
L88.6887 59.7750
" />
<path d="M88.6887 73.7750
L101.6887 73.7750
" />
<path d="M88.6887 59.7750 A0.5000 0.5000 0.0 0 0 88.1887 60.2750" />
<path d="M102.1887 60.2750 A0.5000 0.5000 0.0 0 0 101.6887 59.7750" />
<path d="M101.6887 73.7750 A0.5000 0.5000 0.0 0 0 102.1887 73.2750" />
<path d="M88.1887 73.2750 A0.5000 0.5000 0.0 0 0 88.6887 73.7750" />
<path d="M68.8512 73.2750
L68.8512 60.2750
" />
<path d="M68.3512 59.7750
L61.2075 59.7750
" />
<path d="M61.2075 73.7750
L68.3512 73.7750
" />
<path d="M68.8512 60.2750 A0.5000 0.5000 0.0 0 0 68.3512 59.7750" />
<path d="M68.3512 73.7750 A0.5000 0.5000 0.0 0 0 68.8512 73.2750" />
<path d="M47.7075 60.2750
L47.7075 73.2750
" />
<path d="M55.3513 59.7750
L48.2075 59.7750
" />
<path d="M61.2075 59.7750
L55.3513 59.7750
" />
<path d="M55.3513 73.7750
L61.2075 73.7750
" />
<path d="M48.2075 73.7750
L55.3513 73.7750
" />
<path d="M48.2075 59.7750 A0.5000 0.5000 0.0 0 0 47.7075 60.2750" />
<path d="M47.7075 73.2750 A0.5000 0.5000 0.0 0 0 48.2075 73.7750" />
<path d="M45.0388 73.2750
L45.0388 60.2750
" />
<path d="M44.5388 59.7750
L39.7762 59.7750
" />
<path d="M39.7762 73.7750
L44.5388 73.7750
" />
<path d="M45.0388 60.2750 A0.5000 0.5000 0.0 0 0 44.5388 59.7750" />
<path d="M44.5388 73.7750 A0.5000 0.5000 0.0 0 0 45.0388 73.2750" />
<path d="M26.2762 60.2750
L26.2762 73.2750
" />
<path d="M31.5388 59.7750
L26.7762 59.7750
" />
<path d="M39.7762 59.7750
L31.5388 59.7750
" />
<path d="M31.5388 73.7750
L39.7762 73.7750
" />
<path d="M26.7762 73.7750
L31.5388 73.7750
" />
<path d="M26.7762 59.7750 A0.5000 0.5000 0.0 0 0 26.2762 60.2750" />
<path d="M26.2762 73.2750 A0.5000 0.5000 0.0 0 0 26.7762 73.7750" />
<path d="M21.2263 73.2750
L21.2263 60.2750
" />
<path d="M20.7263 59.7750
L18.3450 59.7750
" />
<path d="M18.3450 73.7750
L20.7263 73.7750
" />
<path d="M21.2263 60.2750 A0.5000 0.5000 0.0 0 0 20.7263 59.7750" />
<path d="M20.7263 73.7750 A0.5000 0.5000 0.0 0 0 21.2263 73.2750" />
<path d="M4.8450 60.2750
L4.8450 73.2750
" />
<path d="M7.7262 59.7750
L5.3450 59.7750
" />
<path d="M18.3450 59.7750
L7.7262 59.7750
" />
<path d="M7.7262 73.7750
L18.3450 73.7750
" />
<path d="M5.3450 73.7750
L7.7262 73.7750
" />
<path d="M5.3450 59.7750 A0.5000 0.5000 0.0 0 0 4.8450 60.2750" />
<path d="M4.8450 73.2750 A0.5000 0.5000 0.0 0 0 5.3450 73.7750" />
<path d="M0.1000 74.7125 A1.5875 1.5875 0.0 0 0 1.6875 76.3000" />
<path d="M1.6875 0.1000
L241.4000 0.1000
" />
<path d="M241.4000 76.2999 A1.5876 1.5876 0.0 0 0 242.9875 74.7125" />
<path d="M242.9874 1.6875 A1.5875 1.5875 0.0 0 0 241.4000 0.1000" />
<path d="M1.6875 0.1000 A1.5875 1.5875 0.0 0 0 0.1000 1.6875" />
<path d="M0.1000 74.7125
L0.1000 1.6875
" />
<path d="M242.9875 1.6875
L242.9875 74.7125
" />
<path d="M241.4000 76.3000
L1.6875 76.3000
" />
<g >
</g>
<g >
</g>
<g >
</g>
</g> 
</svg>
