%TF.GenerationSoftware,KiCad,Pcbnew,(7.99.0-267-g8440d7258b)*%
%TF.CreationDate,2024-08-03T20:04:26-07:00*%
%TF.ProjectId,minibaen r2,6d696e69-6261-4656-9e20-72322e6b6963,rev?*%
%TF.SameCoordinates,Original*%
%TF.FileFunction,Soldermask,Top*%
%TF.FilePolarity,Negative*%
%FSLAX46Y46*%
G04 Gerber Fmt 4.6, Leading zero omitted, Abs format (unit mm)*
G04 Created by KiCad (PCBNEW (7.99.0-267-g8440d7258b)) date 2024-08-03 20:04:26*
%MOMM*%
%LPD*%
G01*
G04 APERTURE LIST*
%ADD10C,1.750000*%
%ADD11C,3.987800*%
%ADD12C,3.048000*%
%ADD13C,3.800000*%
%ADD14C,0.650000*%
%ADD15O,1.000000X1.600000*%
%ADD16O,1.000000X2.100000*%
G04 APERTURE END LIST*
D10*
%TO.C,SW25*%
X241412000Y-47244000D03*
D11*
X246492000Y-47244000D03*
D10*
X251572000Y-47244000D03*
%TD*%
%TO.C,SW35*%
X209994500Y-66294000D03*
D11*
X215074500Y-66294000D03*
D10*
X220154500Y-66294000D03*
%TD*%
%TO.C,SW21*%
X159687000Y-47244000D03*
D11*
X164767000Y-47244000D03*
D10*
X169847000Y-47244000D03*
%TD*%
%TO.C,SW47*%
X224282000Y-85344000D03*
D11*
X229362000Y-85344000D03*
D10*
X234442000Y-85344000D03*
%TD*%
%TO.C,SW31*%
X133794500Y-66294000D03*
D11*
X138874500Y-66294000D03*
D10*
X143954500Y-66294000D03*
%TD*%
%TO.C,SW39*%
X48069500Y-85344000D03*
D11*
X53149500Y-85344000D03*
D10*
X58229500Y-85344000D03*
%TD*%
%TO.C,SW28*%
X76644500Y-66294000D03*
D11*
X81724500Y-66294000D03*
D10*
X86804500Y-66294000D03*
%TD*%
%TO.C,SW23*%
X197047000Y-47244000D03*
D11*
X202127000Y-47244000D03*
D10*
X207207000Y-47244000D03*
%TD*%
%TO.C,SW19*%
X122327000Y-47244000D03*
D11*
X127407000Y-47244000D03*
D10*
X132487000Y-47244000D03*
%TD*%
%TO.C,SW7*%
X136337000Y-28194000D03*
D11*
X141417000Y-28194000D03*
D10*
X146497000Y-28194000D03*
%TD*%
%TO.C,SW41*%
X109982000Y-85344000D03*
D11*
X115062000Y-85344000D03*
D10*
X120142000Y-85344000D03*
%TD*%
D12*
%TO.C,S4*%
X196024500Y-92329000D03*
D11*
X196024500Y-77089000D03*
D12*
X96012000Y-92329000D03*
D11*
X96012000Y-77089000D03*
%TD*%
D10*
%TO.C,SW46*%
X229044500Y-85344000D03*
D11*
X234124500Y-85344000D03*
D10*
X239204500Y-85344000D03*
%TD*%
%TO.C,SW13*%
X248417000Y-28194000D03*
D11*
X253497000Y-28194000D03*
D10*
X258577000Y-28194000D03*
%TD*%
D13*
%TO.C,H1*%
X51298000Y-37719000D03*
%TD*%
%TO.C,H6*%
X202151500Y-84036400D03*
%TD*%
D10*
%TO.C,SW33*%
X171894500Y-66294000D03*
D11*
X176974500Y-66294000D03*
D10*
X182054500Y-66294000D03*
%TD*%
%TO.C,SW20*%
X141007000Y-47244000D03*
D11*
X146087000Y-47244000D03*
D10*
X151167000Y-47244000D03*
%TD*%
D12*
%TO.C,S2*%
X134112000Y-92329000D03*
D11*
X134112000Y-77089000D03*
D12*
X96012000Y-92329000D03*
D11*
X96012000Y-77089000D03*
%TD*%
D10*
%TO.C,SW29*%
X95694500Y-66294000D03*
D11*
X100774500Y-66294000D03*
D10*
X105854500Y-66294000D03*
%TD*%
%TO.C,SW14*%
X26592000Y-47244000D03*
D11*
X31672000Y-47244000D03*
D10*
X36752000Y-47244000D03*
%TD*%
%TO.C,SW15*%
X47607000Y-47244000D03*
D11*
X52687000Y-47244000D03*
D10*
X57767000Y-47244000D03*
%TD*%
D12*
%TO.C,S3*%
X126968250Y-92329000D03*
D11*
X126968250Y-77089000D03*
D12*
X103155750Y-92329000D03*
D11*
X103155750Y-77089000D03*
%TD*%
D10*
%TO.C,SW18*%
X103647000Y-47244000D03*
D11*
X108727000Y-47244000D03*
D10*
X113807000Y-47244000D03*
%TD*%
%TO.C,SW30*%
X114744500Y-66294000D03*
D11*
X119824500Y-66294000D03*
D10*
X124904500Y-66294000D03*
%TD*%
%TO.C,SW4*%
X80297000Y-28194000D03*
D11*
X85377000Y-28194000D03*
D10*
X90457000Y-28194000D03*
%TD*%
%TO.C,SW5*%
X98977000Y-28194000D03*
D11*
X104057000Y-28194000D03*
D10*
X109137000Y-28194000D03*
%TD*%
%TO.C,SW10*%
X192377000Y-28194000D03*
D11*
X197457000Y-28194000D03*
D10*
X202537000Y-28194000D03*
%TD*%
%TO.C,SW36*%
X229044500Y-66294000D03*
D11*
X234124500Y-66294000D03*
D10*
X239204500Y-66294000D03*
%TD*%
%TO.C,SW9*%
X173697000Y-28194000D03*
D11*
X178777000Y-28194000D03*
D10*
X183857000Y-28194000D03*
%TD*%
%TO.C,SW42*%
X140938250Y-85344000D03*
D11*
X146018250Y-85344000D03*
D10*
X151098250Y-85344000D03*
%TD*%
%TO.C,SW24*%
X215727000Y-47244000D03*
D11*
X220807000Y-47244000D03*
D10*
X225887000Y-47244000D03*
%TD*%
%TO.C,SW37*%
X248094500Y-66294000D03*
D11*
X253174500Y-66294000D03*
D10*
X258254500Y-66294000D03*
%TD*%
D13*
%TO.C,H2*%
X127498000Y-37719000D03*
%TD*%
D10*
%TO.C,SW45*%
X210026250Y-85344000D03*
D11*
X215106250Y-85344000D03*
D10*
X220186250Y-85344000D03*
%TD*%
%TO.C,SW34*%
X190944500Y-66294000D03*
D11*
X196024500Y-66294000D03*
D10*
X201104500Y-66294000D03*
%TD*%
%TO.C,SW26*%
X31400750Y-66294000D03*
D11*
X36480750Y-66294000D03*
D10*
X41560750Y-66294000D03*
%TD*%
%TO.C,SW3*%
X61617000Y-28194000D03*
D11*
X66697000Y-28194000D03*
D10*
X71777000Y-28194000D03*
%TD*%
%TO.C,SW2*%
X42937000Y-28194000D03*
D11*
X48017000Y-28194000D03*
D10*
X53097000Y-28194000D03*
%TD*%
%TO.C,SW48*%
X245713250Y-85344000D03*
D11*
X250793250Y-85344000D03*
D10*
X255873250Y-85344000D03*
%TD*%
D13*
%TO.C,H3*%
X157901800Y-56836500D03*
%TD*%
D10*
%TO.C,SW49*%
X248094500Y-85344000D03*
D11*
X253174500Y-85344000D03*
D10*
X258254500Y-85344000D03*
%TD*%
%TO.C,SW8*%
X155017000Y-28194000D03*
D11*
X160097000Y-28194000D03*
D10*
X165177000Y-28194000D03*
%TD*%
%TO.C,SW40*%
X69500750Y-85344000D03*
D11*
X74580750Y-85344000D03*
D10*
X79660750Y-85344000D03*
%TD*%
%TO.C,SW17*%
X84967000Y-47244000D03*
D11*
X90047000Y-47244000D03*
D10*
X95127000Y-47244000D03*
%TD*%
%TO.C,SW16*%
X66287000Y-47244000D03*
D11*
X71367000Y-47244000D03*
D10*
X76447000Y-47244000D03*
%TD*%
D13*
%TO.C,H5*%
X96564500Y-84036400D03*
%TD*%
D12*
%TO.C,S1*%
X181737000Y-92329000D03*
D11*
X181737000Y-77089000D03*
D12*
X157924500Y-92329000D03*
D11*
X157924500Y-77089000D03*
%TD*%
D10*
%TO.C,SW32*%
X152844500Y-66294000D03*
D11*
X157924500Y-66294000D03*
D10*
X163004500Y-66294000D03*
%TD*%
%TO.C,SW44*%
X213042500Y-85344000D03*
D11*
X207962500Y-85344000D03*
D10*
X202882500Y-85344000D03*
%TD*%
D13*
%TO.C,H4*%
X49664500Y-72486400D03*
%TD*%
D10*
%TO.C,SW6*%
X117657000Y-28194000D03*
D11*
X122737000Y-28194000D03*
D10*
X127817000Y-28194000D03*
%TD*%
%TO.C,SW11*%
X211057000Y-28194000D03*
D11*
X216137000Y-28194000D03*
D10*
X221217000Y-28194000D03*
%TD*%
%TO.C,SW38*%
X26638250Y-85344000D03*
D11*
X31718250Y-85344000D03*
D10*
X36798250Y-85344000D03*
%TD*%
%TO.C,SW22*%
X178367000Y-47244000D03*
D11*
X183447000Y-47244000D03*
D10*
X188527000Y-47244000D03*
%TD*%
%TO.C,SW1*%
X24257000Y-28194000D03*
D11*
X29337000Y-28194000D03*
D10*
X34417000Y-28194000D03*
%TD*%
%TO.C,SW27*%
X57594500Y-66294000D03*
D11*
X62674500Y-66294000D03*
D10*
X67754500Y-66294000D03*
%TD*%
%TO.C,SW12*%
X239897000Y-28194000D03*
D11*
X234817000Y-28194000D03*
D10*
X229737000Y-28194000D03*
%TD*%
%TO.C,SW43*%
X164750750Y-85344000D03*
D11*
X169830750Y-85344000D03*
D10*
X174910750Y-85344000D03*
%TD*%
D14*
%TO.C,J1*%
X230068500Y-22360000D03*
X235848500Y-22360000D03*
D15*
X228638499Y-18709999D03*
D16*
X228638499Y-22889999D03*
D15*
X237278499Y-18709999D03*
D16*
X237278499Y-22889999D03*
%TD*%
M02*
