M48
; DRILL file {KiCad (7.99.0-267-g8440d7258b)} date Tuesday, August 22, 2023 at 10:48:40 PM
; FORMAT={-:-/ absolute / inch / decimal}
; #@! TF.CreationDate,2023-08-22T22:48:40-07:00
; #@! TF.GenerationSoftware,Kicad,Pcbnew,(7.99.0-267-g8440d7258b)
; #@! TF.FileFunction,Plated,1,2,PTH
FMAT,2
INCH
; #@! TA.AperFunction,Plated,PTH,ViaDrill
T1C0.0157
; #@! TA.AperFunction,Plated,PTH,ComponentDrill
T2C0.0236
; #@! TA.AperFunction,Plated,PTH,ComponentDrill
T3C0.0600
; #@! TA.AperFunction,Plated,PTH,ComponentDrill
T4C0.0866
%
G90
G05
T1
X1.9243Y-2.0541
X8.325Y-1.775
X8.705Y-1.245
X8.755Y-1.165
X8.855Y-1.385
X8.8798Y-1.7102
X8.88Y-1.45
X8.91Y-1.685
X8.94Y-0.89
X8.9916Y-1.3784
X9.04Y-1.245
X9.145Y-1.415
X9.18Y-1.455
X9.205Y-1.745
X9.205Y-1.9023
X9.245Y-1.44
X9.2773Y-1.9927
X9.36Y-2.0235
X9.3782Y-1.8918
X9.4Y-2.15
X9.41Y-0.885
X9.465Y-1.8
X9.49Y-1.68
X9.5259Y-1.995
X9.61Y-2.105
X9.6417Y-1.63
X9.665Y-1.955
X9.955Y-1.39
X9.955Y-2.0235
T3
X1.005Y-1.01
X1.0969Y-1.76
X1.0987Y-3.26
X1.255Y-0.91
X1.2862Y-2.51
X1.3469Y-1.66
X1.3487Y-3.16
X1.5362Y-2.41
X1.7404Y-1.01
X1.9243Y-1.76
X1.9425Y-3.26
X1.9904Y-0.91
X2.1743Y-1.66
X2.1925Y-3.16
X2.3175Y-2.51
X2.4759Y-1.01
X2.5675Y-2.41
X2.6597Y-1.76
X2.7259Y-0.91
X2.7862Y-3.26
X2.9097Y-1.66
X3.0362Y-3.16
X3.0675Y-2.51
X3.2113Y-1.01
X3.3175Y-2.41
X3.3952Y-1.76
X3.4613Y-0.91
X3.6452Y-1.66
X3.8175Y-2.51
X3.9467Y-1.01
X4.0675Y-2.41
X4.1306Y-1.76
X4.1967Y-0.91
X4.38Y-3.26
X4.3806Y-1.66
X4.5675Y-2.51
X4.63Y-3.16
X4.6822Y-1.01
X4.8175Y-2.41
X4.866Y-1.76
X4.9322Y-0.91
X5.116Y-1.66
X5.3175Y-2.51
X5.4176Y-1.01
X5.5675Y-2.41
X5.5987Y-3.26
X5.6015Y-1.76
X5.6676Y-0.91
X5.8487Y-3.16
X5.8515Y-1.66
X6.0675Y-2.51
X6.153Y-1.01
X6.3175Y-2.41
X6.3337Y-1.76
X6.403Y-0.91
X6.5362Y-3.26
X6.5837Y-1.66
X6.7862Y-3.16
X6.8175Y-2.51
X6.8885Y-1.01
X7.0675Y-2.41
X7.0723Y-1.76
X7.1385Y-0.91
X7.3223Y-1.66
X7.5675Y-2.51
X7.6239Y-1.01
X7.8078Y-1.76
X7.8175Y-2.41
X7.8739Y-0.91
X8.0578Y-1.66
X8.0862Y-3.56
X8.3175Y-2.51
X8.3175Y-3.26
X8.3362Y-3.46
X8.3593Y-1.01
X8.5432Y-1.76
X8.5675Y-2.41
X8.5675Y-3.16
X8.6093Y-0.91
X8.7932Y-1.66
X8.88Y-3.26
X9.0675Y-2.51
X9.0675Y-3.26
X9.13Y-3.16
X9.1448Y-1.31
X9.3175Y-2.41
X9.3175Y-3.16
X9.3948Y-1.21
X9.5544Y-1.76
X9.7237Y-3.26
X9.8044Y-1.66
X9.8175Y-2.51
X9.8175Y-3.26
X9.8302Y-1.01
X9.9737Y-3.16
X10.0675Y-2.41
X10.0675Y-3.16
X10.0802Y-0.91
T4
X1.9553Y-2.8538
X2.0196Y-1.485
X3.8018Y-3.3085
X5.0196Y-1.485
X6.2166Y-2.2377
X7.9587Y-3.3085
T2
G00X9.0015Y-0.7248
M15
G01X9.0015Y-0.7484
M16
G05
G00X9.0015Y-0.8795
M15
G01X9.0015Y-0.9228
M16
G05
G00X9.3417Y-0.7248
M15
G01X9.3417Y-0.7484
M16
G05
G00X9.3417Y-0.8795
M15
G01X9.3417Y-0.9228
M16
G05
T0
M30
