%TF.GenerationSoftware,KiCad,Pcbnew,(7.99.0-267-g8440d7258b)*%
%TF.CreationDate,2023-03-29T01:08:39-07:00*%
%TF.ProjectId,minibaen r2,6d696e69-6261-4656-9e20-72322e6b6963,rev?*%
%TF.SameCoordinates,Original*%
%TF.FileFunction,Soldermask,Top*%
%TF.FilePolarity,Negative*%
%FSLAX46Y46*%
G04 Gerber Fmt 4.6, Leading zero omitted, Abs format (unit mm)*
G04 Created by KiCad (PCBNEW (7.99.0-267-g8440d7258b)) date 2023-03-29 01:08:39*
%MOMM*%
%LPD*%
G01*
G04 APERTURE LIST*
%ADD10C,1.750000*%
%ADD11C,3.987800*%
%ADD12C,3.048000*%
%ADD13C,3.800000*%
%ADD14C,0.650000*%
%ADD15O,1.000000X1.600000*%
%ADD16O,1.000000X2.100000*%
G04 APERTURE END LIST*
D10*
%TO.C,SW25*%
X212075000Y-19050000D03*
D11*
X217155000Y-19050000D03*
D10*
X222235000Y-19050000D03*
%TD*%
D12*
%TO.C,S4*%
X142875000Y-64135000D03*
D11*
X142875000Y-48895000D03*
D12*
X119062500Y-64135000D03*
D11*
X119062500Y-48895000D03*
%TD*%
D10*
%TO.C,SW35*%
X177050000Y-38100000D03*
D11*
X182130000Y-38100000D03*
D10*
X187210000Y-38100000D03*
%TD*%
%TO.C,SW21*%
X130268277Y-19050000D03*
D11*
X135348277Y-19050000D03*
D10*
X140428277Y-19050000D03*
%TD*%
%TO.C,SW31*%
X102330000Y-38100000D03*
D11*
X107410000Y-38100000D03*
D10*
X112490000Y-38100000D03*
%TD*%
%TO.C,SW39*%
X18732500Y-57150000D03*
D11*
X23812500Y-57150000D03*
D10*
X28892500Y-57150000D03*
%TD*%
%TO.C,SW53*%
X190182500Y-57150000D03*
D11*
X195262500Y-57150000D03*
D10*
X200342500Y-57150000D03*
%TD*%
%TO.C,SW28*%
X46290000Y-38100000D03*
D11*
X51370000Y-38100000D03*
D10*
X56450000Y-38100000D03*
%TD*%
%TO.C,SW23*%
X167710000Y-19050000D03*
D11*
X172790000Y-19050000D03*
D10*
X177870000Y-19050000D03*
%TD*%
%TO.C,SW19*%
X92990000Y-19050000D03*
D11*
X98070000Y-19050000D03*
D10*
X103150000Y-19050000D03*
%TD*%
%TO.C,SW7*%
X107000000Y0D03*
D11*
X112080000Y0D03*
D10*
X117160000Y0D03*
%TD*%
%TO.C,SW41*%
X80645000Y-57150000D03*
D11*
X85725000Y-57150000D03*
D10*
X90805000Y-57150000D03*
%TD*%
%TO.C,SW13*%
X219080000Y0D03*
D11*
X224160000Y0D03*
D10*
X229240000Y0D03*
%TD*%
D13*
%TO.C,H1*%
X21877500Y-9542500D03*
%TD*%
D10*
%TO.C,SW33*%
X139690000Y-38100000D03*
D11*
X144770000Y-38100000D03*
D10*
X149850000Y-38100000D03*
%TD*%
%TO.C,SW20*%
X111670000Y-19050000D03*
D11*
X116750000Y-19050000D03*
D10*
X121830000Y-19050000D03*
%TD*%
D12*
%TO.C,S2*%
X104775000Y-64135000D03*
D11*
X104775000Y-48895000D03*
D12*
X66675000Y-64135000D03*
D11*
X66675000Y-48895000D03*
%TD*%
D12*
%TO.C,S5*%
X97631250Y-64135000D03*
D11*
X97631250Y-48895000D03*
D12*
X73818750Y-64135000D03*
D11*
X73818750Y-48895000D03*
%TD*%
D10*
%TO.C,SW29*%
X64970000Y-38100000D03*
D11*
X70050000Y-38100000D03*
D10*
X75130000Y-38100000D03*
%TD*%
%TO.C,SW14*%
X-2745000Y-19050000D03*
D11*
X2335000Y-19050000D03*
D10*
X7415000Y-19050000D03*
%TD*%
%TO.C,SW15*%
X18270000Y-19050000D03*
D11*
X23350000Y-19050000D03*
D10*
X28430000Y-19050000D03*
%TD*%
D12*
%TO.C,S3*%
X97631250Y-64135000D03*
D11*
X97631250Y-48895000D03*
D12*
X73818750Y-64135000D03*
D11*
X73818750Y-48895000D03*
%TD*%
D10*
%TO.C,SW18*%
X74310000Y-19050000D03*
D11*
X79390000Y-19050000D03*
D10*
X84470000Y-19050000D03*
%TD*%
%TO.C,SW30*%
X83650000Y-38100000D03*
D11*
X88730000Y-38100000D03*
D10*
X93810000Y-38100000D03*
%TD*%
%TO.C,SW4*%
X50960000Y0D03*
D11*
X56040000Y0D03*
D10*
X61120000Y0D03*
%TD*%
%TO.C,SW5*%
X69640000Y0D03*
D11*
X74720000Y0D03*
D10*
X79800000Y0D03*
%TD*%
%TO.C,SW10*%
X163040000Y0D03*
D11*
X168120000Y0D03*
D10*
X173200000Y0D03*
%TD*%
%TO.C,SW36*%
X195730000Y-38100000D03*
D11*
X200810000Y-38100000D03*
D10*
X205890000Y-38100000D03*
%TD*%
%TO.C,SW9*%
X144360000Y0D03*
D11*
X149440000Y0D03*
D10*
X154520000Y0D03*
%TD*%
%TO.C,SW49*%
X47307500Y-57150000D03*
D11*
X52387500Y-57150000D03*
D10*
X57467500Y-57150000D03*
%TD*%
%TO.C,SW42*%
X135413750Y-57150000D03*
D11*
X140493750Y-57150000D03*
D10*
X145573750Y-57150000D03*
%TD*%
%TO.C,SW24*%
X186390000Y-19050000D03*
D11*
X191470000Y-19050000D03*
D10*
X196550000Y-19050000D03*
%TD*%
%TO.C,SW37*%
X216745000Y-38100000D03*
D11*
X221825000Y-38100000D03*
D10*
X226905000Y-38100000D03*
%TD*%
%TO.C,SW48*%
X23495000Y-57150000D03*
D11*
X28575000Y-57150000D03*
D10*
X33655000Y-57150000D03*
%TD*%
D13*
%TO.C,H2*%
X98077500Y-9542500D03*
%TD*%
D10*
%TO.C,SW45*%
X216376250Y-57150000D03*
D11*
X221456250Y-57150000D03*
D10*
X226536250Y-57150000D03*
%TD*%
%TO.C,SW34*%
X158370000Y-38100000D03*
D11*
X163450000Y-38100000D03*
D10*
X168530000Y-38100000D03*
%TD*%
%TO.C,SW26*%
X1925000Y-38100000D03*
D11*
X7005000Y-38100000D03*
D10*
X12085000Y-38100000D03*
%TD*%
%TO.C,SW3*%
X32280000Y0D03*
D11*
X37360000Y0D03*
D10*
X42440000Y0D03*
%TD*%
%TO.C,SW2*%
X13600000Y0D03*
D11*
X18680000Y0D03*
D10*
X23760000Y0D03*
%TD*%
%TO.C,SW54*%
X213995000Y-57150000D03*
D11*
X219075000Y-57150000D03*
D10*
X224155000Y-57150000D03*
%TD*%
%TO.C,SW47*%
X-317500Y-57150000D03*
D11*
X4762500Y-57150000D03*
D10*
X9842500Y-57150000D03*
%TD*%
D13*
%TO.C,H3*%
X128564800Y-28642500D03*
%TD*%
D10*
%TO.C,SW8*%
X125680000Y0D03*
D11*
X130760000Y0D03*
D10*
X135840000Y0D03*
%TD*%
%TO.C,SW40*%
X40163750Y-57150000D03*
D11*
X45243750Y-57150000D03*
D10*
X50323750Y-57150000D03*
%TD*%
%TO.C,SW17*%
X55630000Y-19050000D03*
D11*
X60710000Y-19050000D03*
D10*
X65790000Y-19050000D03*
%TD*%
%TO.C,SW16*%
X36950000Y-19050000D03*
D11*
X42030000Y-19050000D03*
D10*
X47110000Y-19050000D03*
%TD*%
%TO.C,SW51*%
X125888750Y-57150000D03*
D11*
X130968750Y-57150000D03*
D10*
X136048750Y-57150000D03*
%TD*%
D13*
%TO.C,H5*%
X67227500Y-55842400D03*
%TD*%
D12*
%TO.C,S1*%
X152400000Y-64135000D03*
D11*
X152400000Y-48895000D03*
D12*
X128587500Y-64135000D03*
D11*
X128587500Y-48895000D03*
%TD*%
D10*
%TO.C,SW32*%
X121010000Y-38100000D03*
D11*
X126090000Y-38100000D03*
D10*
X131170000Y-38100000D03*
%TD*%
%TO.C,SW44*%
X194945000Y-57150000D03*
D11*
X200025000Y-57150000D03*
D10*
X205105000Y-57150000D03*
%TD*%
D13*
%TO.C,H4*%
X20327500Y-44292400D03*
%TD*%
D10*
%TO.C,SW6*%
X88320000Y0D03*
D11*
X93400000Y0D03*
D10*
X98480000Y0D03*
%TD*%
%TO.C,SW11*%
X181720000Y0D03*
D11*
X186800000Y0D03*
D10*
X191880000Y0D03*
%TD*%
%TO.C,SW38*%
X-2698750Y-57150000D03*
D11*
X2381250Y-57150000D03*
D10*
X7461250Y-57150000D03*
%TD*%
%TO.C,SW22*%
X149030000Y-19050000D03*
D11*
X154110000Y-19050000D03*
D10*
X159190000Y-19050000D03*
%TD*%
%TO.C,SW1*%
X-5080000Y0D03*
D11*
X0Y0D03*
D10*
X5080000Y0D03*
%TD*%
%TO.C,SW27*%
X27610000Y-38100000D03*
D11*
X32690000Y-38100000D03*
D10*
X37770000Y-38100000D03*
%TD*%
%TO.C,SW12*%
X210560000Y0D03*
D11*
X205480000Y0D03*
D10*
X200400000Y0D03*
%TD*%
%TO.C,SW43*%
X173513750Y-57150000D03*
D11*
X178593750Y-57150000D03*
D10*
X183673750Y-57150000D03*
%TD*%
%TO.C,SW52*%
X166370000Y-57150000D03*
D11*
X171450000Y-57150000D03*
D10*
X176530000Y-57150000D03*
%TD*%
D14*
%TO.C,J1*%
X200731500Y5834000D03*
X206511500Y5834000D03*
D15*
X199301499Y9483999D03*
D16*
X199301499Y5303999D03*
D15*
X207941499Y9483999D03*
D16*
X207941499Y5303999D03*
%TD*%
M02*
