M48
; DRILL file {KiCad (7.99.0-267-g8440d7258b)} date Tuesday, August 22, 2023 at 10:48:40 PM
; FORMAT={-:-/ absolute / inch / decimal}
; #@! TF.CreationDate,2023-08-22T22:48:40-07:00
; #@! TF.GenerationSoftware,Kicad,Pcbnew,(7.99.0-267-g8440d7258b)
; #@! TF.FileFunction,NonPlated,1,2,NPTH
FMAT,2
INCH
; #@! TA.AperFunction,NonPlated,NPTH,ComponentDrill
T1C0.0256
; #@! TA.AperFunction,NonPlated,NPTH,ComponentDrill
T2C0.0689
; #@! TA.AperFunction,NonPlated,NPTH,ComponentDrill
T3C0.1200
; #@! TA.AperFunction,NonPlated,NPTH,ComponentDrill
T4C0.1570
%
G90
G05
T1
X9.0578Y-0.8803
X9.2854Y-0.8803
T2
X0.955Y-1.11
X1.0469Y-1.86
X1.0488Y-3.36
X1.2363Y-2.61
X1.355Y-1.11
X1.4469Y-1.86
X1.4487Y-3.36
X1.6362Y-2.61
X1.6904Y-1.11
X1.8743Y-1.86
X1.8925Y-3.36
X2.0904Y-1.11
X2.2675Y-2.61
X2.2743Y-1.86
X2.2925Y-3.36
X2.4259Y-1.11
X2.6097Y-1.86
X2.6675Y-2.61
X2.7363Y-3.36
X2.8259Y-1.11
X3.0097Y-1.86
X3.0175Y-2.61
X3.1362Y-3.36
X3.1613Y-1.11
X3.3452Y-1.86
X3.4175Y-2.61
X3.5613Y-1.11
X3.7452Y-1.86
X3.7675Y-2.61
X3.8967Y-1.11
X4.0806Y-1.86
X4.1675Y-2.61
X4.2967Y-1.11
X4.33Y-3.36
X4.4806Y-1.86
X4.5175Y-2.61
X4.6322Y-1.11
X4.73Y-3.36
X4.816Y-1.86
X4.9175Y-2.61
X5.0322Y-1.11
X5.216Y-1.86
X5.2675Y-2.61
X5.3676Y-1.11
X5.5488Y-3.36
X5.5515Y-1.86
X5.6675Y-2.61
X5.7676Y-1.11
X5.9487Y-3.36
X5.9515Y-1.86
X6.0175Y-2.61
X6.103Y-1.11
X6.2837Y-1.86
X6.4175Y-2.61
X6.4863Y-3.36
X6.503Y-1.11
X6.6837Y-1.86
X6.7675Y-2.61
X6.8385Y-1.11
X6.8862Y-3.36
X7.0223Y-1.86
X7.1675Y-2.61
X7.2385Y-1.11
X7.4223Y-1.86
X7.5175Y-2.61
X7.5739Y-1.11
X7.7578Y-1.86
X7.9175Y-2.61
X7.9739Y-1.11
X7.9863Y-3.36
X8.1578Y-1.86
X8.2675Y-2.61
X8.2675Y-3.36
X8.3093Y-1.11
X8.3863Y-3.36
X8.4932Y-1.86
X8.6675Y-2.61
X8.6675Y-3.36
X8.7093Y-1.11
X8.83Y-3.36
X8.8932Y-1.86
X9.0175Y-2.61
X9.0175Y-3.36
X9.0448Y-1.11
X9.23Y-3.36
X9.4175Y-2.61
X9.4175Y-3.36
X9.4448Y-1.11
X9.5044Y-1.86
X9.6738Y-3.36
X9.7675Y-2.61
X9.7675Y-3.36
X9.7802Y-1.11
X9.9044Y-1.86
X10.0738Y-3.36
X10.1675Y-2.61
X10.1675Y-3.36
X10.1802Y-1.11
T3
X3.78Y-3.635
X3.78Y-3.635
X4.0613Y-3.635
X4.9988Y-3.635
X5.28Y-3.635
X6.2175Y-3.635
X7.155Y-3.635
X7.7175Y-3.635
T4
X1.155Y-1.11
X1.2469Y-1.86
X1.2488Y-3.36
X1.4363Y-2.61
X1.8904Y-1.11
X2.0743Y-1.86
X2.0925Y-3.36
X2.4675Y-2.61
X2.6259Y-1.11
X2.8097Y-1.86
X2.9362Y-3.36
X3.2175Y-2.61
X3.3613Y-1.11
X3.5452Y-1.86
X3.78Y-3.035
X3.78Y-3.035
X3.9675Y-2.61
X4.0613Y-3.035
X4.0967Y-1.11
X4.2806Y-1.86
X4.53Y-3.36
X4.7175Y-2.61
X4.8322Y-1.11
X4.9988Y-3.035
X5.016Y-1.86
X5.28Y-3.035
X5.4675Y-2.61
X5.5676Y-1.11
X5.7488Y-3.36
X5.7515Y-1.86
X6.2175Y-2.61
X6.2175Y-3.035
X6.303Y-1.11
X6.4837Y-1.86
X6.6863Y-3.36
X6.9675Y-2.61
X7.0385Y-1.11
X7.155Y-3.035
X7.2223Y-1.86
X7.7175Y-2.61
X7.7175Y-3.035
X7.7739Y-1.11
X7.9578Y-1.86
X8.1862Y-3.36
X8.4675Y-2.61
X8.4675Y-3.36
X8.5093Y-1.11
X8.6932Y-1.86
X9.03Y-3.36
X9.2175Y-2.61
X9.2175Y-3.36
X9.2448Y-1.11
X9.7044Y-1.86
X9.8737Y-3.36
X9.9675Y-2.61
X9.9675Y-3.36
X9.9802Y-1.11
T0
M30
