%TF.GenerationSoftware,KiCad,Pcbnew,(7.99.0-267-g8440d7258b)*%
%TF.CreationDate,2023-08-22T22:48:40-07:00*%
%TF.ProjectId,minibaen r2,6d696e69-6261-4656-9e20-72322e6b6963,rev?*%
%TF.SameCoordinates,Original*%
%TF.FileFunction,Legend,Top*%
%TF.FilePolarity,Positive*%
%FSLAX46Y46*%
G04 Gerber Fmt 4.6, Leading zero omitted, Abs format (unit mm)*
G04 Created by KiCad (PCBNEW (7.99.0-267-g8440d7258b)) date 2023-08-22 22:48:40*
%MOMM*%
%LPD*%
G01*
G04 APERTURE LIST*
%ADD10C,0.150000*%
%ADD11C,3.987800*%
%ADD12C,3.048000*%
%ADD13C,3.800000*%
%ADD14C,1.750000*%
%ADD15O,1.000000X2.100000*%
%ADD16O,1.000000X1.600000*%
%ADD17C,0.650000*%
G04 APERTURE END LIST*
D10*
X178196857Y-73680619D02*
X178815904Y-73680619D01*
X178815904Y-73680619D02*
X178482571Y-74061571D01*
X178482571Y-74061571D02*
X178625428Y-74061571D01*
X178625428Y-74061571D02*
X178720666Y-74109190D01*
X178720666Y-74109190D02*
X178768285Y-74156809D01*
X178768285Y-74156809D02*
X178815904Y-74252047D01*
X178815904Y-74252047D02*
X178815904Y-74490142D01*
X178815904Y-74490142D02*
X178768285Y-74585380D01*
X178768285Y-74585380D02*
X178720666Y-74633000D01*
X178720666Y-74633000D02*
X178625428Y-74680619D01*
X178625428Y-74680619D02*
X178339714Y-74680619D01*
X178339714Y-74680619D02*
X178244476Y-74633000D01*
X178244476Y-74633000D02*
X178196857Y-74585380D01*
X179244476Y-73680619D02*
X179244476Y-74490142D01*
X179244476Y-74490142D02*
X179292095Y-74585380D01*
X179292095Y-74585380D02*
X179339714Y-74633000D01*
X179339714Y-74633000D02*
X179434952Y-74680619D01*
X179434952Y-74680619D02*
X179625428Y-74680619D01*
X179625428Y-74680619D02*
X179720666Y-74633000D01*
X179720666Y-74633000D02*
X179768285Y-74585380D01*
X179768285Y-74585380D02*
X179815904Y-74490142D01*
X179815904Y-74490142D02*
X179815904Y-73680619D01*
X180292095Y-74299666D02*
X181054000Y-74299666D01*
X180673047Y-74680619D02*
X180673047Y-73918714D01*
X181482571Y-73775857D02*
X181530190Y-73728238D01*
X181530190Y-73728238D02*
X181625428Y-73680619D01*
X181625428Y-73680619D02*
X181863523Y-73680619D01*
X181863523Y-73680619D02*
X181958761Y-73728238D01*
X181958761Y-73728238D02*
X182006380Y-73775857D01*
X182006380Y-73775857D02*
X182053999Y-73871095D01*
X182053999Y-73871095D02*
X182053999Y-73966333D01*
X182053999Y-73966333D02*
X182006380Y-74109190D01*
X182006380Y-74109190D02*
X181434952Y-74680619D01*
X181434952Y-74680619D02*
X182053999Y-74680619D01*
X182482571Y-74585380D02*
X182530190Y-74633000D01*
X182530190Y-74633000D02*
X182482571Y-74680619D01*
X182482571Y-74680619D02*
X182434952Y-74633000D01*
X182434952Y-74633000D02*
X182482571Y-74585380D01*
X182482571Y-74585380D02*
X182482571Y-74680619D01*
X182863523Y-73680619D02*
X183530189Y-73680619D01*
X183530189Y-73680619D02*
X183101618Y-74680619D01*
X184387332Y-73680619D02*
X183911142Y-73680619D01*
X183911142Y-73680619D02*
X183863523Y-74156809D01*
X183863523Y-74156809D02*
X183911142Y-74109190D01*
X183911142Y-74109190D02*
X184006380Y-74061571D01*
X184006380Y-74061571D02*
X184244475Y-74061571D01*
X184244475Y-74061571D02*
X184339713Y-74109190D01*
X184339713Y-74109190D02*
X184387332Y-74156809D01*
X184387332Y-74156809D02*
X184434951Y-74252047D01*
X184434951Y-74252047D02*
X184434951Y-74490142D01*
X184434951Y-74490142D02*
X184387332Y-74585380D01*
X184387332Y-74585380D02*
X184339713Y-74633000D01*
X184339713Y-74633000D02*
X184244475Y-74680619D01*
X184244475Y-74680619D02*
X184006380Y-74680619D01*
X184006380Y-74680619D02*
X183911142Y-74633000D01*
X183911142Y-74633000D02*
X183863523Y-74585380D01*
X184863523Y-73680619D02*
X184863523Y-74490142D01*
X184863523Y-74490142D02*
X184911142Y-74585380D01*
X184911142Y-74585380D02*
X184958761Y-74633000D01*
X184958761Y-74633000D02*
X185053999Y-74680619D01*
X185053999Y-74680619D02*
X185244475Y-74680619D01*
X185244475Y-74680619D02*
X185339713Y-74633000D01*
X185339713Y-74633000D02*
X185387332Y-74585380D01*
X185387332Y-74585380D02*
X185434951Y-74490142D01*
X185434951Y-74490142D02*
X185434951Y-73680619D01*
X154574857Y-73680619D02*
X155193904Y-73680619D01*
X155193904Y-73680619D02*
X154860571Y-74061571D01*
X154860571Y-74061571D02*
X155003428Y-74061571D01*
X155003428Y-74061571D02*
X155098666Y-74109190D01*
X155098666Y-74109190D02*
X155146285Y-74156809D01*
X155146285Y-74156809D02*
X155193904Y-74252047D01*
X155193904Y-74252047D02*
X155193904Y-74490142D01*
X155193904Y-74490142D02*
X155146285Y-74585380D01*
X155146285Y-74585380D02*
X155098666Y-74633000D01*
X155098666Y-74633000D02*
X155003428Y-74680619D01*
X155003428Y-74680619D02*
X154717714Y-74680619D01*
X154717714Y-74680619D02*
X154622476Y-74633000D01*
X154622476Y-74633000D02*
X154574857Y-74585380D01*
X155622476Y-73680619D02*
X155622476Y-74490142D01*
X155622476Y-74490142D02*
X155670095Y-74585380D01*
X155670095Y-74585380D02*
X155717714Y-74633000D01*
X155717714Y-74633000D02*
X155812952Y-74680619D01*
X155812952Y-74680619D02*
X156003428Y-74680619D01*
X156003428Y-74680619D02*
X156098666Y-74633000D01*
X156098666Y-74633000D02*
X156146285Y-74585380D01*
X156146285Y-74585380D02*
X156193904Y-74490142D01*
X156193904Y-74490142D02*
X156193904Y-73680619D01*
X156670095Y-74299666D02*
X157432000Y-74299666D01*
X157051047Y-74680619D02*
X157051047Y-73918714D01*
X157860571Y-73775857D02*
X157908190Y-73728238D01*
X157908190Y-73728238D02*
X158003428Y-73680619D01*
X158003428Y-73680619D02*
X158241523Y-73680619D01*
X158241523Y-73680619D02*
X158336761Y-73728238D01*
X158336761Y-73728238D02*
X158384380Y-73775857D01*
X158384380Y-73775857D02*
X158431999Y-73871095D01*
X158431999Y-73871095D02*
X158431999Y-73966333D01*
X158431999Y-73966333D02*
X158384380Y-74109190D01*
X158384380Y-74109190D02*
X157812952Y-74680619D01*
X157812952Y-74680619D02*
X158431999Y-74680619D01*
X158860571Y-74585380D02*
X158908190Y-74633000D01*
X158908190Y-74633000D02*
X158860571Y-74680619D01*
X158860571Y-74680619D02*
X158812952Y-74633000D01*
X158812952Y-74633000D02*
X158860571Y-74585380D01*
X158860571Y-74585380D02*
X158860571Y-74680619D01*
X159241523Y-73680619D02*
X159908189Y-73680619D01*
X159908189Y-73680619D02*
X159479618Y-74680619D01*
X160765332Y-73680619D02*
X160289142Y-73680619D01*
X160289142Y-73680619D02*
X160241523Y-74156809D01*
X160241523Y-74156809D02*
X160289142Y-74109190D01*
X160289142Y-74109190D02*
X160384380Y-74061571D01*
X160384380Y-74061571D02*
X160622475Y-74061571D01*
X160622475Y-74061571D02*
X160717713Y-74109190D01*
X160717713Y-74109190D02*
X160765332Y-74156809D01*
X160765332Y-74156809D02*
X160812951Y-74252047D01*
X160812951Y-74252047D02*
X160812951Y-74490142D01*
X160812951Y-74490142D02*
X160765332Y-74585380D01*
X160765332Y-74585380D02*
X160717713Y-74633000D01*
X160717713Y-74633000D02*
X160622475Y-74680619D01*
X160622475Y-74680619D02*
X160384380Y-74680619D01*
X160384380Y-74680619D02*
X160289142Y-74633000D01*
X160289142Y-74633000D02*
X160241523Y-74585380D01*
X161241523Y-73680619D02*
X161241523Y-74490142D01*
X161241523Y-74490142D02*
X161289142Y-74585380D01*
X161289142Y-74585380D02*
X161336761Y-74633000D01*
X161336761Y-74633000D02*
X161431999Y-74680619D01*
X161431999Y-74680619D02*
X161622475Y-74680619D01*
X161622475Y-74680619D02*
X161717713Y-74633000D01*
X161717713Y-74633000D02*
X161765332Y-74585380D01*
X161765332Y-74585380D02*
X161812951Y-74490142D01*
X161812951Y-74490142D02*
X161812951Y-73680619D01*
X95011857Y-73680619D02*
X95630904Y-73680619D01*
X95630904Y-73680619D02*
X95297571Y-74061571D01*
X95297571Y-74061571D02*
X95440428Y-74061571D01*
X95440428Y-74061571D02*
X95535666Y-74109190D01*
X95535666Y-74109190D02*
X95583285Y-74156809D01*
X95583285Y-74156809D02*
X95630904Y-74252047D01*
X95630904Y-74252047D02*
X95630904Y-74490142D01*
X95630904Y-74490142D02*
X95583285Y-74585380D01*
X95583285Y-74585380D02*
X95535666Y-74633000D01*
X95535666Y-74633000D02*
X95440428Y-74680619D01*
X95440428Y-74680619D02*
X95154714Y-74680619D01*
X95154714Y-74680619D02*
X95059476Y-74633000D01*
X95059476Y-74633000D02*
X95011857Y-74585380D01*
X96059476Y-73680619D02*
X96059476Y-74490142D01*
X96059476Y-74490142D02*
X96107095Y-74585380D01*
X96107095Y-74585380D02*
X96154714Y-74633000D01*
X96154714Y-74633000D02*
X96249952Y-74680619D01*
X96249952Y-74680619D02*
X96440428Y-74680619D01*
X96440428Y-74680619D02*
X96535666Y-74633000D01*
X96535666Y-74633000D02*
X96583285Y-74585380D01*
X96583285Y-74585380D02*
X96630904Y-74490142D01*
X96630904Y-74490142D02*
X96630904Y-73680619D01*
X102298476Y-73775857D02*
X102346095Y-73728238D01*
X102346095Y-73728238D02*
X102441333Y-73680619D01*
X102441333Y-73680619D02*
X102679428Y-73680619D01*
X102679428Y-73680619D02*
X102774666Y-73728238D01*
X102774666Y-73728238D02*
X102822285Y-73775857D01*
X102822285Y-73775857D02*
X102869904Y-73871095D01*
X102869904Y-73871095D02*
X102869904Y-73966333D01*
X102869904Y-73966333D02*
X102822285Y-74109190D01*
X102822285Y-74109190D02*
X102250857Y-74680619D01*
X102250857Y-74680619D02*
X102869904Y-74680619D01*
X103298476Y-73680619D02*
X103298476Y-74490142D01*
X103298476Y-74490142D02*
X103346095Y-74585380D01*
X103346095Y-74585380D02*
X103393714Y-74633000D01*
X103393714Y-74633000D02*
X103488952Y-74680619D01*
X103488952Y-74680619D02*
X103679428Y-74680619D01*
X103679428Y-74680619D02*
X103774666Y-74633000D01*
X103774666Y-74633000D02*
X103822285Y-74585380D01*
X103822285Y-74585380D02*
X103869904Y-74490142D01*
X103869904Y-74490142D02*
X103869904Y-73680619D01*
X126174476Y-73775857D02*
X126222095Y-73728238D01*
X126222095Y-73728238D02*
X126317333Y-73680619D01*
X126317333Y-73680619D02*
X126555428Y-73680619D01*
X126555428Y-73680619D02*
X126650666Y-73728238D01*
X126650666Y-73728238D02*
X126698285Y-73775857D01*
X126698285Y-73775857D02*
X126745904Y-73871095D01*
X126745904Y-73871095D02*
X126745904Y-73966333D01*
X126745904Y-73966333D02*
X126698285Y-74109190D01*
X126698285Y-74109190D02*
X126126857Y-74680619D01*
X126126857Y-74680619D02*
X126745904Y-74680619D01*
X127174476Y-73680619D02*
X127174476Y-74490142D01*
X127174476Y-74490142D02*
X127222095Y-74585380D01*
X127222095Y-74585380D02*
X127269714Y-74633000D01*
X127269714Y-74633000D02*
X127364952Y-74680619D01*
X127364952Y-74680619D02*
X127555428Y-74680619D01*
X127555428Y-74680619D02*
X127650666Y-74633000D01*
X127650666Y-74633000D02*
X127698285Y-74585380D01*
X127698285Y-74585380D02*
X127745904Y-74490142D01*
X127745904Y-74490142D02*
X127745904Y-73680619D01*
X133238857Y-73680619D02*
X133857904Y-73680619D01*
X133857904Y-73680619D02*
X133524571Y-74061571D01*
X133524571Y-74061571D02*
X133667428Y-74061571D01*
X133667428Y-74061571D02*
X133762666Y-74109190D01*
X133762666Y-74109190D02*
X133810285Y-74156809D01*
X133810285Y-74156809D02*
X133857904Y-74252047D01*
X133857904Y-74252047D02*
X133857904Y-74490142D01*
X133857904Y-74490142D02*
X133810285Y-74585380D01*
X133810285Y-74585380D02*
X133762666Y-74633000D01*
X133762666Y-74633000D02*
X133667428Y-74680619D01*
X133667428Y-74680619D02*
X133381714Y-74680619D01*
X133381714Y-74680619D02*
X133286476Y-74633000D01*
X133286476Y-74633000D02*
X133238857Y-74585380D01*
X134286476Y-73680619D02*
X134286476Y-74490142D01*
X134286476Y-74490142D02*
X134334095Y-74585380D01*
X134334095Y-74585380D02*
X134381714Y-74633000D01*
X134381714Y-74633000D02*
X134476952Y-74680619D01*
X134476952Y-74680619D02*
X134667428Y-74680619D01*
X134667428Y-74680619D02*
X134762666Y-74633000D01*
X134762666Y-74633000D02*
X134810285Y-74585380D01*
X134810285Y-74585380D02*
X134857904Y-74490142D01*
X134857904Y-74490142D02*
X134857904Y-73680619D01*
%TO.C,H6*%
X201389595Y-81599019D02*
X201389595Y-80599019D01*
X201389595Y-81075209D02*
X201961023Y-81075209D01*
X201961023Y-81599019D02*
X201961023Y-80599019D01*
X202865785Y-80599019D02*
X202675309Y-80599019D01*
X202675309Y-80599019D02*
X202580071Y-80646638D01*
X202580071Y-80646638D02*
X202532452Y-80694257D01*
X202532452Y-80694257D02*
X202437214Y-80837114D01*
X202437214Y-80837114D02*
X202389595Y-81027590D01*
X202389595Y-81027590D02*
X202389595Y-81408542D01*
X202389595Y-81408542D02*
X202437214Y-81503780D01*
X202437214Y-81503780D02*
X202484833Y-81551400D01*
X202484833Y-81551400D02*
X202580071Y-81599019D01*
X202580071Y-81599019D02*
X202770547Y-81599019D01*
X202770547Y-81599019D02*
X202865785Y-81551400D01*
X202865785Y-81551400D02*
X202913404Y-81503780D01*
X202913404Y-81503780D02*
X202961023Y-81408542D01*
X202961023Y-81408542D02*
X202961023Y-81170447D01*
X202961023Y-81170447D02*
X202913404Y-81075209D01*
X202913404Y-81075209D02*
X202865785Y-81027590D01*
X202865785Y-81027590D02*
X202770547Y-80979971D01*
X202770547Y-80979971D02*
X202580071Y-80979971D01*
X202580071Y-80979971D02*
X202484833Y-81027590D01*
X202484833Y-81027590D02*
X202437214Y-81075209D01*
X202437214Y-81075209D02*
X202389595Y-81170447D01*
%TO.C,H4*%
X48902595Y-70049019D02*
X48902595Y-69049019D01*
X48902595Y-69525209D02*
X49474023Y-69525209D01*
X49474023Y-70049019D02*
X49474023Y-69049019D01*
X50378785Y-69382352D02*
X50378785Y-70049019D01*
X50140690Y-69001400D02*
X49902595Y-69715685D01*
X49902595Y-69715685D02*
X50521642Y-69715685D01*
%TO.C,H2*%
X126736095Y-35281619D02*
X126736095Y-34281619D01*
X126736095Y-34757809D02*
X127307523Y-34757809D01*
X127307523Y-35281619D02*
X127307523Y-34281619D01*
X127736095Y-34376857D02*
X127783714Y-34329238D01*
X127783714Y-34329238D02*
X127878952Y-34281619D01*
X127878952Y-34281619D02*
X128117047Y-34281619D01*
X128117047Y-34281619D02*
X128212285Y-34329238D01*
X128212285Y-34329238D02*
X128259904Y-34376857D01*
X128259904Y-34376857D02*
X128307523Y-34472095D01*
X128307523Y-34472095D02*
X128307523Y-34567333D01*
X128307523Y-34567333D02*
X128259904Y-34710190D01*
X128259904Y-34710190D02*
X127688476Y-35281619D01*
X127688476Y-35281619D02*
X128307523Y-35281619D01*
%TO.C,H5*%
X95802595Y-81599019D02*
X95802595Y-80599019D01*
X95802595Y-81075209D02*
X96374023Y-81075209D01*
X96374023Y-81599019D02*
X96374023Y-80599019D01*
X97326404Y-80599019D02*
X96850214Y-80599019D01*
X96850214Y-80599019D02*
X96802595Y-81075209D01*
X96802595Y-81075209D02*
X96850214Y-81027590D01*
X96850214Y-81027590D02*
X96945452Y-80979971D01*
X96945452Y-80979971D02*
X97183547Y-80979971D01*
X97183547Y-80979971D02*
X97278785Y-81027590D01*
X97278785Y-81027590D02*
X97326404Y-81075209D01*
X97326404Y-81075209D02*
X97374023Y-81170447D01*
X97374023Y-81170447D02*
X97374023Y-81408542D01*
X97374023Y-81408542D02*
X97326404Y-81503780D01*
X97326404Y-81503780D02*
X97278785Y-81551400D01*
X97278785Y-81551400D02*
X97183547Y-81599019D01*
X97183547Y-81599019D02*
X96945452Y-81599019D01*
X96945452Y-81599019D02*
X96850214Y-81551400D01*
X96850214Y-81551400D02*
X96802595Y-81503780D01*
%TO.C,H3*%
X157139895Y-54399119D02*
X157139895Y-53399119D01*
X157139895Y-53875309D02*
X157711323Y-53875309D01*
X157711323Y-54399119D02*
X157711323Y-53399119D01*
X158092276Y-53399119D02*
X158711323Y-53399119D01*
X158711323Y-53399119D02*
X158377990Y-53780071D01*
X158377990Y-53780071D02*
X158520847Y-53780071D01*
X158520847Y-53780071D02*
X158616085Y-53827690D01*
X158616085Y-53827690D02*
X158663704Y-53875309D01*
X158663704Y-53875309D02*
X158711323Y-53970547D01*
X158711323Y-53970547D02*
X158711323Y-54208642D01*
X158711323Y-54208642D02*
X158663704Y-54303880D01*
X158663704Y-54303880D02*
X158616085Y-54351500D01*
X158616085Y-54351500D02*
X158520847Y-54399119D01*
X158520847Y-54399119D02*
X158235133Y-54399119D01*
X158235133Y-54399119D02*
X158139895Y-54351500D01*
X158139895Y-54351500D02*
X158092276Y-54303880D01*
%TO.C,H1*%
X50536095Y-35281619D02*
X50536095Y-34281619D01*
X50536095Y-34757809D02*
X51107523Y-34757809D01*
X51107523Y-35281619D02*
X51107523Y-34281619D01*
X52107523Y-35281619D02*
X51536095Y-35281619D01*
X51821809Y-35281619D02*
X51821809Y-34281619D01*
X51821809Y-34281619D02*
X51726571Y-34424476D01*
X51726571Y-34424476D02*
X51631333Y-34519714D01*
X51631333Y-34519714D02*
X51536095Y-34567333D01*
%TD*%
%LPC*%
D11*
%TO.C,S3*%
X103155750Y-77089000D03*
D12*
X103155750Y-92329000D03*
D11*
X126968250Y-77089000D03*
D12*
X126968250Y-92329000D03*
%TD*%
D11*
%TO.C,S2*%
X96012000Y-77089000D03*
D12*
X96012000Y-92329000D03*
D11*
X134112000Y-77089000D03*
D12*
X134112000Y-92329000D03*
%TD*%
D11*
%TO.C,S1*%
X157924500Y-77089000D03*
D12*
X157924500Y-92329000D03*
D11*
X181737000Y-77089000D03*
D12*
X181737000Y-92329000D03*
%TD*%
D11*
%TO.C,S4*%
X96012000Y-77089000D03*
D12*
X196024500Y-92329000D03*
X96012000Y-92329000D03*
D11*
X196024500Y-77089000D03*
%TD*%
D13*
%TO.C,H6*%
X202151500Y-84036400D03*
%TD*%
D14*
%TO.C,SW2*%
X53097000Y-28194000D03*
D11*
X48017000Y-28194000D03*
D14*
X42937000Y-28194000D03*
%TD*%
%TO.C,SW3*%
X71777000Y-28194000D03*
D11*
X66697000Y-28194000D03*
D14*
X61617000Y-28194000D03*
%TD*%
%TO.C,SW44*%
X234442000Y-85344000D03*
D11*
X229362000Y-85344000D03*
D14*
X224282000Y-85344000D03*
%TD*%
D13*
%TO.C,H4*%
X49664500Y-72486400D03*
%TD*%
D14*
%TO.C,SW8*%
X165177000Y-28194000D03*
D11*
X160097000Y-28194000D03*
D14*
X155017000Y-28194000D03*
%TD*%
%TO.C,SW26*%
X41560750Y-66294000D03*
D11*
X36480750Y-66294000D03*
D14*
X31400750Y-66294000D03*
%TD*%
%TO.C,SW40*%
X79660750Y-85344000D03*
D11*
X74580750Y-85344000D03*
D14*
X69500750Y-85344000D03*
%TD*%
%TO.C,SW17*%
X95127000Y-47244000D03*
D11*
X90047000Y-47244000D03*
D14*
X84967000Y-47244000D03*
%TD*%
%TO.C,SW16*%
X76447000Y-47244000D03*
D11*
X71367000Y-47244000D03*
D14*
X66287000Y-47244000D03*
%TD*%
%TO.C,SW1*%
X34417000Y-28194000D03*
D11*
X29337000Y-28194000D03*
D14*
X24257000Y-28194000D03*
%TD*%
%TO.C,SW27*%
X67754500Y-66294000D03*
D11*
X62674500Y-66294000D03*
D14*
X57594500Y-66294000D03*
%TD*%
%TO.C,SW12*%
X229737000Y-28194000D03*
D11*
X234817000Y-28194000D03*
D14*
X239897000Y-28194000D03*
%TD*%
D13*
%TO.C,H2*%
X127498000Y-37719000D03*
%TD*%
%TO.C,H5*%
X96564500Y-84036400D03*
%TD*%
D14*
%TO.C,SW43*%
X202850750Y-85344000D03*
D11*
X207930750Y-85344000D03*
D14*
X213010750Y-85344000D03*
%TD*%
D15*
%TO.C,J1*%
X237278499Y-22889999D03*
D16*
X237278499Y-18709999D03*
D15*
X228638499Y-22889999D03*
D16*
X228638499Y-18709999D03*
D17*
X235848500Y-22360000D03*
X230068500Y-22360000D03*
%TD*%
D13*
%TO.C,H3*%
X157901800Y-56836500D03*
%TD*%
D14*
%TO.C,SW34*%
X201104500Y-66294000D03*
D11*
X196024500Y-66294000D03*
D14*
X190944500Y-66294000D03*
%TD*%
%TO.C,SW21*%
X169765277Y-47244000D03*
D11*
X164685277Y-47244000D03*
D14*
X159605277Y-47244000D03*
%TD*%
%TO.C,SW39*%
X58229500Y-85344000D03*
D11*
X53149500Y-85344000D03*
D14*
X48069500Y-85344000D03*
%TD*%
%TO.C,SW31*%
X143954500Y-66294000D03*
D11*
X138874500Y-66294000D03*
D14*
X133794500Y-66294000D03*
%TD*%
%TO.C,SW28*%
X86804500Y-66294000D03*
D11*
X81724500Y-66294000D03*
D14*
X76644500Y-66294000D03*
%TD*%
%TO.C,SW23*%
X207207000Y-47244000D03*
D11*
X202127000Y-47244000D03*
D14*
X197047000Y-47244000D03*
%TD*%
%TO.C,SW19*%
X132487000Y-47244000D03*
D11*
X127407000Y-47244000D03*
D14*
X122327000Y-47244000D03*
%TD*%
%TO.C,SW57*%
X258254500Y-85344000D03*
D11*
X253174500Y-85344000D03*
D14*
X248094500Y-85344000D03*
%TD*%
%TO.C,SW7*%
X146497000Y-28194000D03*
D11*
X141417000Y-28194000D03*
D14*
X136337000Y-28194000D03*
%TD*%
%TO.C,SW41*%
X120142000Y-85344000D03*
D11*
X115062000Y-85344000D03*
D14*
X109982000Y-85344000D03*
%TD*%
%TO.C,SW50*%
X151098250Y-85344000D03*
D11*
X146018250Y-85344000D03*
D14*
X140938250Y-85344000D03*
%TD*%
%TO.C,SW13*%
X258577000Y-28194000D03*
D11*
X253497000Y-28194000D03*
D14*
X248417000Y-28194000D03*
%TD*%
D13*
%TO.C,H1*%
X51298000Y-37719000D03*
%TD*%
D14*
%TO.C,SW33*%
X182054500Y-66294000D03*
D11*
X176974500Y-66294000D03*
D14*
X171894500Y-66294000D03*
%TD*%
%TO.C,SW55*%
X220154500Y-85344000D03*
D11*
X215074500Y-85344000D03*
D14*
X209994500Y-85344000D03*
%TD*%
%TO.C,SW20*%
X151167000Y-47244000D03*
D11*
X146087000Y-47244000D03*
D14*
X141007000Y-47244000D03*
%TD*%
%TO.C,SW29*%
X105854500Y-66294000D03*
D11*
X100774500Y-66294000D03*
D14*
X95694500Y-66294000D03*
%TD*%
%TO.C,SW14*%
X36752000Y-47244000D03*
D11*
X31672000Y-47244000D03*
D14*
X26592000Y-47244000D03*
%TD*%
%TO.C,SW15*%
X57767000Y-47244000D03*
D11*
X52687000Y-47244000D03*
D14*
X47607000Y-47244000D03*
%TD*%
%TO.C,SW18*%
X113807000Y-47244000D03*
D11*
X108727000Y-47244000D03*
D14*
X103647000Y-47244000D03*
%TD*%
%TO.C,SW30*%
X124904500Y-66294000D03*
D11*
X119824500Y-66294000D03*
D14*
X114744500Y-66294000D03*
%TD*%
%TO.C,SW4*%
X90457000Y-28194000D03*
D11*
X85377000Y-28194000D03*
D14*
X80297000Y-28194000D03*
%TD*%
%TO.C,SW5*%
X109137000Y-28194000D03*
D11*
X104057000Y-28194000D03*
D14*
X98977000Y-28194000D03*
%TD*%
%TO.C,SW10*%
X202537000Y-28194000D03*
D11*
X197457000Y-28194000D03*
D14*
X192377000Y-28194000D03*
%TD*%
%TO.C,SW36*%
X239204500Y-66294000D03*
D11*
X234124500Y-66294000D03*
D14*
X229044500Y-66294000D03*
%TD*%
%TO.C,SW9*%
X183857000Y-28194000D03*
D11*
X178777000Y-28194000D03*
D14*
X173697000Y-28194000D03*
%TD*%
%TO.C,SW42*%
X174910750Y-85344000D03*
D11*
X169830750Y-85344000D03*
D14*
X164750750Y-85344000D03*
%TD*%
%TO.C,SW24*%
X225887000Y-47244000D03*
D11*
X220807000Y-47244000D03*
D14*
X215727000Y-47244000D03*
%TD*%
%TO.C,SW37*%
X258254500Y-66294000D03*
D11*
X253174500Y-66294000D03*
D14*
X248094500Y-66294000D03*
%TD*%
%TO.C,SW25*%
X251572000Y-47244000D03*
D11*
X246492000Y-47244000D03*
D14*
X241412000Y-47244000D03*
%TD*%
%TO.C,SW35*%
X220154500Y-66294000D03*
D11*
X215074500Y-66294000D03*
D14*
X209994500Y-66294000D03*
%TD*%
%TO.C,SW45*%
X255873250Y-85344000D03*
D11*
X250793250Y-85344000D03*
D14*
X245713250Y-85344000D03*
%TD*%
%TO.C,SW56*%
X239204500Y-85344000D03*
D11*
X234124500Y-85344000D03*
D14*
X229044500Y-85344000D03*
%TD*%
%TO.C,SW6*%
X127817000Y-28194000D03*
D11*
X122737000Y-28194000D03*
D14*
X117657000Y-28194000D03*
%TD*%
%TO.C,SW11*%
X221217000Y-28194000D03*
D11*
X216137000Y-28194000D03*
D14*
X211057000Y-28194000D03*
%TD*%
%TO.C,SW32*%
X163004500Y-66294000D03*
D11*
X157924500Y-66294000D03*
D14*
X152844500Y-66294000D03*
%TD*%
%TO.C,SW38*%
X36798250Y-85344000D03*
D11*
X31718250Y-85344000D03*
D14*
X26638250Y-85344000D03*
%TD*%
%TO.C,SW22*%
X188527000Y-47244000D03*
D11*
X183447000Y-47244000D03*
D14*
X178367000Y-47244000D03*
%TD*%
M02*
