%TF.GenerationSoftware,KiCad,Pcbnew,(7.99.0-267-g8440d7258b)*%
%TF.CreationDate,2024-08-03T20:04:26-07:00*%
%TF.ProjectId,minibaen r2,6d696e69-6261-4656-9e20-72322e6b6963,rev?*%
%TF.SameCoordinates,Original*%
%TF.FileFunction,Legend,Top*%
%TF.FilePolarity,Positive*%
%FSLAX46Y46*%
G04 Gerber Fmt 4.6, Leading zero omitted, Abs format (unit mm)*
G04 Created by KiCad (PCBNEW (7.99.0-267-g8440d7258b)) date 2024-08-03 20:04:26*
%MOMM*%
%LPD*%
G01*
G04 APERTURE LIST*
%ADD10C,0.150000*%
%ADD11C,1.750000*%
%ADD12C,3.987800*%
%ADD13C,3.048000*%
%ADD14C,3.800000*%
%ADD15C,0.650000*%
%ADD16O,1.000000X1.600000*%
%ADD17O,1.000000X2.100000*%
G04 APERTURE END LIST*
D10*
%TO.C,H1*%
X50536095Y-35281619D02*
X50536095Y-34281619D01*
X50536095Y-34757809D02*
X51107523Y-34757809D01*
X51107523Y-35281619D02*
X51107523Y-34281619D01*
X52107523Y-35281619D02*
X51536095Y-35281619D01*
X51821809Y-35281619D02*
X51821809Y-34281619D01*
X51821809Y-34281619D02*
X51726571Y-34424476D01*
X51726571Y-34424476D02*
X51631333Y-34519714D01*
X51631333Y-34519714D02*
X51536095Y-34567333D01*
%TO.C,H6*%
X201389595Y-81599019D02*
X201389595Y-80599019D01*
X201389595Y-81075209D02*
X201961023Y-81075209D01*
X201961023Y-81599019D02*
X201961023Y-80599019D01*
X202865785Y-80599019D02*
X202675309Y-80599019D01*
X202675309Y-80599019D02*
X202580071Y-80646638D01*
X202580071Y-80646638D02*
X202532452Y-80694257D01*
X202532452Y-80694257D02*
X202437214Y-80837114D01*
X202437214Y-80837114D02*
X202389595Y-81027590D01*
X202389595Y-81027590D02*
X202389595Y-81408542D01*
X202389595Y-81408542D02*
X202437214Y-81503780D01*
X202437214Y-81503780D02*
X202484833Y-81551400D01*
X202484833Y-81551400D02*
X202580071Y-81599019D01*
X202580071Y-81599019D02*
X202770547Y-81599019D01*
X202770547Y-81599019D02*
X202865785Y-81551400D01*
X202865785Y-81551400D02*
X202913404Y-81503780D01*
X202913404Y-81503780D02*
X202961023Y-81408542D01*
X202961023Y-81408542D02*
X202961023Y-81170447D01*
X202961023Y-81170447D02*
X202913404Y-81075209D01*
X202913404Y-81075209D02*
X202865785Y-81027590D01*
X202865785Y-81027590D02*
X202770547Y-80979971D01*
X202770547Y-80979971D02*
X202580071Y-80979971D01*
X202580071Y-80979971D02*
X202484833Y-81027590D01*
X202484833Y-81027590D02*
X202437214Y-81075209D01*
X202437214Y-81075209D02*
X202389595Y-81170447D01*
%TO.C,H2*%
X126736095Y-35281619D02*
X126736095Y-34281619D01*
X126736095Y-34757809D02*
X127307523Y-34757809D01*
X127307523Y-35281619D02*
X127307523Y-34281619D01*
X127736095Y-34376857D02*
X127783714Y-34329238D01*
X127783714Y-34329238D02*
X127878952Y-34281619D01*
X127878952Y-34281619D02*
X128117047Y-34281619D01*
X128117047Y-34281619D02*
X128212285Y-34329238D01*
X128212285Y-34329238D02*
X128259904Y-34376857D01*
X128259904Y-34376857D02*
X128307523Y-34472095D01*
X128307523Y-34472095D02*
X128307523Y-34567333D01*
X128307523Y-34567333D02*
X128259904Y-34710190D01*
X128259904Y-34710190D02*
X127688476Y-35281619D01*
X127688476Y-35281619D02*
X128307523Y-35281619D01*
%TO.C,H3*%
X157139895Y-54399119D02*
X157139895Y-53399119D01*
X157139895Y-53875309D02*
X157711323Y-53875309D01*
X157711323Y-54399119D02*
X157711323Y-53399119D01*
X158092276Y-53399119D02*
X158711323Y-53399119D01*
X158711323Y-53399119D02*
X158377990Y-53780071D01*
X158377990Y-53780071D02*
X158520847Y-53780071D01*
X158520847Y-53780071D02*
X158616085Y-53827690D01*
X158616085Y-53827690D02*
X158663704Y-53875309D01*
X158663704Y-53875309D02*
X158711323Y-53970547D01*
X158711323Y-53970547D02*
X158711323Y-54208642D01*
X158711323Y-54208642D02*
X158663704Y-54303880D01*
X158663704Y-54303880D02*
X158616085Y-54351500D01*
X158616085Y-54351500D02*
X158520847Y-54399119D01*
X158520847Y-54399119D02*
X158235133Y-54399119D01*
X158235133Y-54399119D02*
X158139895Y-54351500D01*
X158139895Y-54351500D02*
X158092276Y-54303880D01*
%TO.C,H5*%
X95802595Y-81599019D02*
X95802595Y-80599019D01*
X95802595Y-81075209D02*
X96374023Y-81075209D01*
X96374023Y-81599019D02*
X96374023Y-80599019D01*
X97326404Y-80599019D02*
X96850214Y-80599019D01*
X96850214Y-80599019D02*
X96802595Y-81075209D01*
X96802595Y-81075209D02*
X96850214Y-81027590D01*
X96850214Y-81027590D02*
X96945452Y-80979971D01*
X96945452Y-80979971D02*
X97183547Y-80979971D01*
X97183547Y-80979971D02*
X97278785Y-81027590D01*
X97278785Y-81027590D02*
X97326404Y-81075209D01*
X97326404Y-81075209D02*
X97374023Y-81170447D01*
X97374023Y-81170447D02*
X97374023Y-81408542D01*
X97374023Y-81408542D02*
X97326404Y-81503780D01*
X97326404Y-81503780D02*
X97278785Y-81551400D01*
X97278785Y-81551400D02*
X97183547Y-81599019D01*
X97183547Y-81599019D02*
X96945452Y-81599019D01*
X96945452Y-81599019D02*
X96850214Y-81551400D01*
X96850214Y-81551400D02*
X96802595Y-81503780D01*
%TO.C,H4*%
X48902595Y-70049019D02*
X48902595Y-69049019D01*
X48902595Y-69525209D02*
X49474023Y-69525209D01*
X49474023Y-70049019D02*
X49474023Y-69049019D01*
X50378785Y-69382352D02*
X50378785Y-70049019D01*
X50140690Y-69001400D02*
X49902595Y-69715685D01*
X49902595Y-69715685D02*
X50521642Y-69715685D01*
%TD*%
%LPC*%
D11*
%TO.C,SW25*%
X241412000Y-47244000D03*
D12*
X246492000Y-47244000D03*
D11*
X251572000Y-47244000D03*
%TD*%
%TO.C,SW35*%
X209994500Y-66294000D03*
D12*
X215074500Y-66294000D03*
D11*
X220154500Y-66294000D03*
%TD*%
%TO.C,SW21*%
X159687000Y-47244000D03*
D12*
X164767000Y-47244000D03*
D11*
X169847000Y-47244000D03*
%TD*%
%TO.C,SW47*%
X224282000Y-85344000D03*
D12*
X229362000Y-85344000D03*
D11*
X234442000Y-85344000D03*
%TD*%
%TO.C,SW31*%
X133794500Y-66294000D03*
D12*
X138874500Y-66294000D03*
D11*
X143954500Y-66294000D03*
%TD*%
%TO.C,SW39*%
X48069500Y-85344000D03*
D12*
X53149500Y-85344000D03*
D11*
X58229500Y-85344000D03*
%TD*%
%TO.C,SW28*%
X76644500Y-66294000D03*
D12*
X81724500Y-66294000D03*
D11*
X86804500Y-66294000D03*
%TD*%
%TO.C,SW23*%
X197047000Y-47244000D03*
D12*
X202127000Y-47244000D03*
D11*
X207207000Y-47244000D03*
%TD*%
%TO.C,SW19*%
X122327000Y-47244000D03*
D12*
X127407000Y-47244000D03*
D11*
X132487000Y-47244000D03*
%TD*%
%TO.C,SW7*%
X136337000Y-28194000D03*
D12*
X141417000Y-28194000D03*
D11*
X146497000Y-28194000D03*
%TD*%
%TO.C,SW41*%
X109982000Y-85344000D03*
D12*
X115062000Y-85344000D03*
D11*
X120142000Y-85344000D03*
%TD*%
D13*
%TO.C,S4*%
X196024500Y-92329000D03*
D12*
X196024500Y-77089000D03*
D13*
X96012000Y-92329000D03*
D12*
X96012000Y-77089000D03*
%TD*%
D11*
%TO.C,SW46*%
X229044500Y-85344000D03*
D12*
X234124500Y-85344000D03*
D11*
X239204500Y-85344000D03*
%TD*%
%TO.C,SW13*%
X248417000Y-28194000D03*
D12*
X253497000Y-28194000D03*
D11*
X258577000Y-28194000D03*
%TD*%
D14*
%TO.C,H1*%
X51298000Y-37719000D03*
%TD*%
%TO.C,H6*%
X202151500Y-84036400D03*
%TD*%
D11*
%TO.C,SW33*%
X171894500Y-66294000D03*
D12*
X176974500Y-66294000D03*
D11*
X182054500Y-66294000D03*
%TD*%
%TO.C,SW20*%
X141007000Y-47244000D03*
D12*
X146087000Y-47244000D03*
D11*
X151167000Y-47244000D03*
%TD*%
D13*
%TO.C,S2*%
X134112000Y-92329000D03*
D12*
X134112000Y-77089000D03*
D13*
X96012000Y-92329000D03*
D12*
X96012000Y-77089000D03*
%TD*%
D11*
%TO.C,SW29*%
X95694500Y-66294000D03*
D12*
X100774500Y-66294000D03*
D11*
X105854500Y-66294000D03*
%TD*%
%TO.C,SW14*%
X26592000Y-47244000D03*
D12*
X31672000Y-47244000D03*
D11*
X36752000Y-47244000D03*
%TD*%
%TO.C,SW15*%
X47607000Y-47244000D03*
D12*
X52687000Y-47244000D03*
D11*
X57767000Y-47244000D03*
%TD*%
D13*
%TO.C,S3*%
X126968250Y-92329000D03*
D12*
X126968250Y-77089000D03*
D13*
X103155750Y-92329000D03*
D12*
X103155750Y-77089000D03*
%TD*%
D11*
%TO.C,SW18*%
X103647000Y-47244000D03*
D12*
X108727000Y-47244000D03*
D11*
X113807000Y-47244000D03*
%TD*%
%TO.C,SW30*%
X114744500Y-66294000D03*
D12*
X119824500Y-66294000D03*
D11*
X124904500Y-66294000D03*
%TD*%
%TO.C,SW4*%
X80297000Y-28194000D03*
D12*
X85377000Y-28194000D03*
D11*
X90457000Y-28194000D03*
%TD*%
%TO.C,SW5*%
X98977000Y-28194000D03*
D12*
X104057000Y-28194000D03*
D11*
X109137000Y-28194000D03*
%TD*%
%TO.C,SW10*%
X192377000Y-28194000D03*
D12*
X197457000Y-28194000D03*
D11*
X202537000Y-28194000D03*
%TD*%
%TO.C,SW36*%
X229044500Y-66294000D03*
D12*
X234124500Y-66294000D03*
D11*
X239204500Y-66294000D03*
%TD*%
%TO.C,SW9*%
X173697000Y-28194000D03*
D12*
X178777000Y-28194000D03*
D11*
X183857000Y-28194000D03*
%TD*%
%TO.C,SW42*%
X140938250Y-85344000D03*
D12*
X146018250Y-85344000D03*
D11*
X151098250Y-85344000D03*
%TD*%
%TO.C,SW24*%
X215727000Y-47244000D03*
D12*
X220807000Y-47244000D03*
D11*
X225887000Y-47244000D03*
%TD*%
%TO.C,SW37*%
X248094500Y-66294000D03*
D12*
X253174500Y-66294000D03*
D11*
X258254500Y-66294000D03*
%TD*%
D14*
%TO.C,H2*%
X127498000Y-37719000D03*
%TD*%
D11*
%TO.C,SW45*%
X210026250Y-85344000D03*
D12*
X215106250Y-85344000D03*
D11*
X220186250Y-85344000D03*
%TD*%
%TO.C,SW34*%
X190944500Y-66294000D03*
D12*
X196024500Y-66294000D03*
D11*
X201104500Y-66294000D03*
%TD*%
%TO.C,SW26*%
X31400750Y-66294000D03*
D12*
X36480750Y-66294000D03*
D11*
X41560750Y-66294000D03*
%TD*%
%TO.C,SW3*%
X61617000Y-28194000D03*
D12*
X66697000Y-28194000D03*
D11*
X71777000Y-28194000D03*
%TD*%
%TO.C,SW2*%
X42937000Y-28194000D03*
D12*
X48017000Y-28194000D03*
D11*
X53097000Y-28194000D03*
%TD*%
%TO.C,SW48*%
X245713250Y-85344000D03*
D12*
X250793250Y-85344000D03*
D11*
X255873250Y-85344000D03*
%TD*%
D14*
%TO.C,H3*%
X157901800Y-56836500D03*
%TD*%
D11*
%TO.C,SW49*%
X248094500Y-85344000D03*
D12*
X253174500Y-85344000D03*
D11*
X258254500Y-85344000D03*
%TD*%
%TO.C,SW8*%
X155017000Y-28194000D03*
D12*
X160097000Y-28194000D03*
D11*
X165177000Y-28194000D03*
%TD*%
%TO.C,SW40*%
X69500750Y-85344000D03*
D12*
X74580750Y-85344000D03*
D11*
X79660750Y-85344000D03*
%TD*%
%TO.C,SW17*%
X84967000Y-47244000D03*
D12*
X90047000Y-47244000D03*
D11*
X95127000Y-47244000D03*
%TD*%
%TO.C,SW16*%
X66287000Y-47244000D03*
D12*
X71367000Y-47244000D03*
D11*
X76447000Y-47244000D03*
%TD*%
D14*
%TO.C,H5*%
X96564500Y-84036400D03*
%TD*%
D13*
%TO.C,S1*%
X181737000Y-92329000D03*
D12*
X181737000Y-77089000D03*
D13*
X157924500Y-92329000D03*
D12*
X157924500Y-77089000D03*
%TD*%
D11*
%TO.C,SW32*%
X152844500Y-66294000D03*
D12*
X157924500Y-66294000D03*
D11*
X163004500Y-66294000D03*
%TD*%
%TO.C,SW44*%
X213042500Y-85344000D03*
D12*
X207962500Y-85344000D03*
D11*
X202882500Y-85344000D03*
%TD*%
D14*
%TO.C,H4*%
X49664500Y-72486400D03*
%TD*%
D11*
%TO.C,SW6*%
X117657000Y-28194000D03*
D12*
X122737000Y-28194000D03*
D11*
X127817000Y-28194000D03*
%TD*%
%TO.C,SW11*%
X211057000Y-28194000D03*
D12*
X216137000Y-28194000D03*
D11*
X221217000Y-28194000D03*
%TD*%
%TO.C,SW38*%
X26638250Y-85344000D03*
D12*
X31718250Y-85344000D03*
D11*
X36798250Y-85344000D03*
%TD*%
%TO.C,SW22*%
X178367000Y-47244000D03*
D12*
X183447000Y-47244000D03*
D11*
X188527000Y-47244000D03*
%TD*%
%TO.C,SW1*%
X24257000Y-28194000D03*
D12*
X29337000Y-28194000D03*
D11*
X34417000Y-28194000D03*
%TD*%
%TO.C,SW27*%
X57594500Y-66294000D03*
D12*
X62674500Y-66294000D03*
D11*
X67754500Y-66294000D03*
%TD*%
%TO.C,SW12*%
X239897000Y-28194000D03*
D12*
X234817000Y-28194000D03*
D11*
X229737000Y-28194000D03*
%TD*%
%TO.C,SW43*%
X164750750Y-85344000D03*
D12*
X169830750Y-85344000D03*
D11*
X174910750Y-85344000D03*
%TD*%
D15*
%TO.C,J1*%
X230068500Y-22360000D03*
X235848500Y-22360000D03*
D16*
X228638499Y-18709999D03*
D17*
X228638499Y-22889999D03*
D16*
X237278499Y-18709999D03*
D17*
X237278499Y-22889999D03*
%TD*%
M02*
