M48
; DRILL file {KiCad (7.99.0-267-g8440d7258b)} date Wednesday, March 29, 2023 at 01:08:39 AM
; FORMAT={-:-/ absolute / inch / decimal}
; #@! TF.CreationDate,2023-03-29T01:08:39-07:00
; #@! TF.GenerationSoftware,Kicad,Pcbnew,(7.99.0-267-g8440d7258b)
; #@! TF.FileFunction,NonPlated,1,2,NPTH
FMAT,2
INCH
; #@! TA.AperFunction,NonPlated,NPTH,ComponentDrill
T1C0.0256
; #@! TA.AperFunction,NonPlated,NPTH,ComponentDrill
T2C0.0689
; #@! TA.AperFunction,NonPlated,NPTH,ComponentDrill
T3C0.1200
; #@! TA.AperFunction,NonPlated,NPTH,ComponentDrill
T4C0.1570
%
G90
G05
T1
X7.9028Y0.2297
X8.1304Y0.2297
T2
X-0.2Y0.0
X-0.1081Y-0.75
X-0.1062Y-2.25
X-0.0125Y-2.25
X0.0758Y-1.5
X0.2Y0.0
X0.2919Y-0.75
X0.2938Y-2.25
X0.3875Y-2.25
X0.4758Y-1.5
X0.5354Y0.0
X0.7193Y-0.75
X0.7375Y-2.25
X0.925Y-2.25
X0.9354Y0.0
X1.087Y-1.5
X1.1193Y-0.75
X1.1375Y-2.25
X1.2709Y0.0
X1.325Y-2.25
X1.4547Y-0.75
X1.487Y-1.5
X1.5813Y-2.25
X1.6709Y0.0
X1.8224Y-1.5
X1.8547Y-0.75
X1.8625Y-2.25
X1.9812Y-2.25
X2.0063Y0.0
X2.1902Y-0.75
X2.2224Y-1.5
X2.2625Y-2.25
X2.4063Y0.0
X2.5579Y-1.5
X2.5902Y-0.75
X2.7417Y0.0
X2.9256Y-0.75
X2.9579Y-1.5
X3.1417Y0.0
X3.175Y-2.25
X3.2933Y-1.5
X3.3256Y-0.75
X3.4772Y0.0
X3.575Y-2.25
X3.661Y-0.75
X3.6933Y-1.5
X3.8772Y0.0
X4.0287Y-1.5
X4.061Y-0.75
X4.2126Y0.0
X4.3965Y-0.75
X4.4287Y-1.5
X4.6126Y0.0
X4.7642Y-1.5
X4.7965Y-0.75
X4.948Y0.0
X4.9562Y-2.25
X5.1287Y-0.75
X5.1642Y-1.5
X5.3312Y-2.25
X5.348Y0.0
X5.3563Y-2.25
X5.4996Y-1.5
X5.5287Y-0.75
X5.6835Y0.0
X5.7313Y-2.25
X5.8673Y-0.75
X5.8996Y-1.5
X6.0835Y0.0
X6.235Y-1.5
X6.2673Y-0.75
X6.4189Y0.0
X6.55Y-2.25
X6.6028Y-0.75
X6.635Y-1.5
X6.8189Y0.0
X6.8312Y-2.25
X6.95Y-2.25
X6.9705Y-1.5
X7.0028Y-0.75
X7.1543Y0.0
X7.2313Y-2.25
X7.3382Y-0.75
X7.3705Y-1.5
X7.4875Y-2.25
X7.5543Y0.0
X7.675Y-2.25
X7.7059Y-1.5
X7.7382Y-0.75
X7.8875Y-2.25
X7.8898Y0.0
X8.075Y-2.25
X8.1059Y-1.5
X8.2898Y0.0
X8.3494Y-0.75
X8.425Y-2.25
X8.5187Y-2.25
X8.5333Y-1.5
X8.6252Y0.0
X8.7494Y-0.75
X8.825Y-2.25
X8.9187Y-2.25
X8.9333Y-1.5
X9.0252Y0.0
T3
X2.625Y-2.525
X2.9062Y-2.525
X2.9062Y-2.525
X3.8438Y-2.525
X3.8438Y-2.525
X4.125Y-2.525
X4.6875Y-2.525
X5.0625Y-2.525
X5.625Y-2.525
X6.0Y-2.525
T4
X0.0Y0.0
X0.0919Y-0.75
X0.0938Y-2.25
X0.1875Y-2.25
X0.2758Y-1.5
X0.7354Y0.0
X0.9193Y-0.75
X0.9375Y-2.25
X1.125Y-2.25
X1.287Y-1.5
X1.4709Y0.0
X1.6547Y-0.75
X1.7812Y-2.25
X2.0224Y-1.5
X2.0625Y-2.25
X2.2063Y0.0
X2.3902Y-0.75
X2.625Y-1.925
X2.7579Y-1.5
X2.9062Y-1.925
X2.9062Y-1.925
X2.9417Y0.0
X3.1256Y-0.75
X3.375Y-2.25
X3.4933Y-1.5
X3.6772Y0.0
X3.8438Y-1.925
X3.8438Y-1.925
X3.861Y-0.75
X4.125Y-1.925
X4.2287Y-1.5
X4.4126Y0.0
X4.5965Y-0.75
X4.6875Y-1.925
X4.9642Y-1.5
X5.0625Y-1.925
X5.148Y0.0
X5.1562Y-2.25
X5.3287Y-0.75
X5.5312Y-2.25
X5.625Y-1.925
X5.6996Y-1.5
X5.8835Y0.0
X6.0Y-1.925
X6.0673Y-0.75
X6.435Y-1.5
X6.6189Y0.0
X6.75Y-2.25
X6.8028Y-0.75
X7.0312Y-2.25
X7.1705Y-1.5
X7.3543Y0.0
X7.5382Y-0.75
X7.6875Y-2.25
X7.875Y-2.25
X7.9059Y-1.5
X8.0898Y0.0
X8.5494Y-0.75
X8.625Y-2.25
X8.7188Y-2.25
X8.7333Y-1.5
X8.8252Y0.0
T0
M30
