%TF.GenerationSoftware,KiCad,Pcbnew,(7.99.0-267-g8440d7258b)*%
%TF.CreationDate,2023-05-07T03:38:39-07:00*%
%TF.ProjectId,minibaen r2,6d696e69-6261-4656-9e20-72322e6b6963,rev?*%
%TF.SameCoordinates,Original*%
%TF.FileFunction,Soldermask,Bot*%
%TF.FilePolarity,Negative*%
%FSLAX46Y46*%
G04 Gerber Fmt 4.6, Leading zero omitted, Abs format (unit mm)*
G04 Created by KiCad (PCBNEW (7.99.0-267-g8440d7258b)) date 2023-05-07 03:38:39*
%MOMM*%
%LPD*%
G01*
G04 APERTURE LIST*
G04 Aperture macros list*
%AMRoundRect*
0 Rectangle with rounded corners*
0 $1 Rounding radius*
0 $2 $3 $4 $5 $6 $7 $8 $9 X,Y pos of 4 corners*
0 Add a 4 corners polygon primitive as box body*
4,1,4,$2,$3,$4,$5,$6,$7,$8,$9,$2,$3,0*
0 Add four circle primitives for the rounded corners*
1,1,$1+$1,$2,$3*
1,1,$1+$1,$4,$5*
1,1,$1+$1,$6,$7*
1,1,$1+$1,$8,$9*
0 Add four rect primitives between the rounded corners*
20,1,$1+$1,$2,$3,$4,$5,0*
20,1,$1+$1,$4,$5,$6,$7,0*
20,1,$1+$1,$6,$7,$8,$9,0*
20,1,$1+$1,$8,$9,$2,$3,0*%
G04 Aperture macros list end*
%ADD10C,1.750000*%
%ADD11C,3.987800*%
%ADD12C,2.300000*%
%ADD13C,3.048000*%
%ADD14C,3.800000*%
%ADD15RoundRect,0.225000X0.375000X-0.225000X0.375000X0.225000X-0.375000X0.225000X-0.375000X-0.225000X0*%
%ADD16RoundRect,0.140000X0.021213X-0.219203X0.219203X-0.021213X-0.021213X0.219203X-0.219203X0.021213X0*%
%ADD17RoundRect,0.140000X-0.219203X-0.021213X-0.021213X-0.219203X0.219203X0.021213X0.021213X0.219203X0*%
%ADD18RoundRect,0.135000X-0.185000X0.135000X-0.185000X-0.135000X0.185000X-0.135000X0.185000X0.135000X0*%
%ADD19RoundRect,0.140000X-0.140000X-0.170000X0.140000X-0.170000X0.140000X0.170000X-0.140000X0.170000X0*%
%ADD20RoundRect,0.150000X0.475000X0.150000X-0.475000X0.150000X-0.475000X-0.150000X0.475000X-0.150000X0*%
%ADD21R,1.700000X1.000000*%
%ADD22RoundRect,0.150000X0.150000X-0.587500X0.150000X0.587500X-0.150000X0.587500X-0.150000X-0.587500X0*%
%ADD23RoundRect,0.140000X0.140000X0.170000X-0.140000X0.170000X-0.140000X-0.170000X0.140000X-0.170000X0*%
%ADD24RoundRect,0.135000X-0.135000X-0.185000X0.135000X-0.185000X0.135000X0.185000X-0.135000X0.185000X0*%
%ADD25RoundRect,0.135000X-0.226274X-0.035355X-0.035355X-0.226274X0.226274X0.035355X0.035355X0.226274X0*%
%ADD26RoundRect,0.075000X0.521491X-0.415425X-0.415425X0.521491X-0.521491X0.415425X0.415425X-0.521491X0*%
%ADD27RoundRect,0.075000X0.521491X0.415425X0.415425X0.521491X-0.521491X-0.415425X-0.415425X-0.521491X0*%
%ADD28RoundRect,0.140000X0.170000X-0.140000X0.170000X0.140000X-0.170000X0.140000X-0.170000X-0.140000X0*%
%ADD29C,0.650000*%
%ADD30R,0.600000X1.450000*%
%ADD31R,0.300000X1.450000*%
%ADD32O,1.000000X1.600000*%
%ADD33O,1.000000X2.100000*%
%ADD34RoundRect,0.218750X-0.256250X0.218750X-0.256250X-0.218750X0.256250X-0.218750X0.256250X0.218750X0*%
G04 APERTURE END LIST*
D10*
%TO.C,SW25*%
X212075000Y-19050000D03*
D11*
X217155000Y-19050000D03*
D10*
X222235000Y-19050000D03*
D12*
X213345000Y-16510000D03*
X219695000Y-13970000D03*
%TD*%
D13*
%TO.C,S4*%
X142875000Y-64135000D03*
D11*
X142875000Y-48895000D03*
D13*
X119062500Y-64135000D03*
D11*
X119062500Y-48895000D03*
%TD*%
D10*
%TO.C,SW35*%
X177050000Y-38100000D03*
D11*
X182130000Y-38100000D03*
D10*
X187210000Y-38100000D03*
D12*
X178320000Y-35560000D03*
X184670000Y-33020000D03*
%TD*%
D10*
%TO.C,SW21*%
X130268277Y-19050000D03*
D11*
X135348277Y-19050000D03*
D10*
X140428277Y-19050000D03*
D12*
X131538277Y-16510000D03*
X137888277Y-13970000D03*
%TD*%
D10*
%TO.C,SW31*%
X102330000Y-38100000D03*
D11*
X107410000Y-38100000D03*
D10*
X112490000Y-38100000D03*
D12*
X103600000Y-35560000D03*
X109950000Y-33020000D03*
%TD*%
D10*
%TO.C,SW39*%
X18732500Y-57150000D03*
D11*
X23812500Y-57150000D03*
D10*
X28892500Y-57150000D03*
D12*
X20002500Y-54610000D03*
X26352500Y-52070000D03*
%TD*%
D10*
%TO.C,SW53*%
X190182500Y-57150000D03*
D11*
X195262500Y-57150000D03*
D10*
X200342500Y-57150000D03*
D12*
X191452500Y-54610000D03*
X197802500Y-52070000D03*
%TD*%
D10*
%TO.C,SW28*%
X46290000Y-38100000D03*
D11*
X51370000Y-38100000D03*
D10*
X56450000Y-38100000D03*
D12*
X47560000Y-35560000D03*
X53910000Y-33020000D03*
%TD*%
D10*
%TO.C,SW23*%
X167710000Y-19050000D03*
D11*
X172790000Y-19050000D03*
D10*
X177870000Y-19050000D03*
D12*
X168980000Y-16510000D03*
X175330000Y-13970000D03*
%TD*%
D10*
%TO.C,SW19*%
X92990000Y-19050000D03*
D11*
X98070000Y-19050000D03*
D10*
X103150000Y-19050000D03*
D12*
X94260000Y-16510000D03*
X100610000Y-13970000D03*
%TD*%
D10*
%TO.C,SW7*%
X107000000Y0D03*
D11*
X112080000Y0D03*
D10*
X117160000Y0D03*
D12*
X108270000Y2540000D03*
X114620000Y5080000D03*
%TD*%
D10*
%TO.C,SW41*%
X80645000Y-57150000D03*
D11*
X85725000Y-57150000D03*
D10*
X90805000Y-57150000D03*
D12*
X81915000Y-54610000D03*
X88265000Y-52070000D03*
%TD*%
D10*
%TO.C,SW13*%
X219080000Y0D03*
D11*
X224160000Y0D03*
D10*
X229240000Y0D03*
D12*
X220350000Y2540000D03*
X226700000Y5080000D03*
%TD*%
D14*
%TO.C,H1*%
X21877500Y-9542500D03*
%TD*%
D10*
%TO.C,SW33*%
X139690000Y-38100000D03*
D11*
X144770000Y-38100000D03*
D10*
X149850000Y-38100000D03*
D12*
X140960000Y-35560000D03*
X147310000Y-33020000D03*
%TD*%
D10*
%TO.C,SW20*%
X111670000Y-19050000D03*
D11*
X116750000Y-19050000D03*
D10*
X121830000Y-19050000D03*
D12*
X112940000Y-16510000D03*
X119290000Y-13970000D03*
%TD*%
D13*
%TO.C,S2*%
X104775000Y-64135000D03*
D11*
X104775000Y-48895000D03*
D13*
X66675000Y-64135000D03*
D11*
X66675000Y-48895000D03*
%TD*%
D13*
%TO.C,S5*%
X97631250Y-64135000D03*
D11*
X97631250Y-48895000D03*
D13*
X73818750Y-64135000D03*
D11*
X73818750Y-48895000D03*
%TD*%
D10*
%TO.C,SW29*%
X64970000Y-38100000D03*
D11*
X70050000Y-38100000D03*
D10*
X75130000Y-38100000D03*
D12*
X66240000Y-35560000D03*
X72590000Y-33020000D03*
%TD*%
D10*
%TO.C,SW14*%
X-2745000Y-19050000D03*
D11*
X2335000Y-19050000D03*
D10*
X7415000Y-19050000D03*
D12*
X-1475000Y-16510000D03*
X4875000Y-13970000D03*
%TD*%
D10*
%TO.C,SW15*%
X18270000Y-19050000D03*
D11*
X23350000Y-19050000D03*
D10*
X28430000Y-19050000D03*
D12*
X19540000Y-16510000D03*
X25890000Y-13970000D03*
%TD*%
D13*
%TO.C,S3*%
X97631250Y-64135000D03*
D11*
X97631250Y-48895000D03*
D13*
X73818750Y-64135000D03*
D11*
X73818750Y-48895000D03*
%TD*%
D10*
%TO.C,SW18*%
X74310000Y-19050000D03*
D11*
X79390000Y-19050000D03*
D10*
X84470000Y-19050000D03*
D12*
X75580000Y-16510000D03*
X81930000Y-13970000D03*
%TD*%
D10*
%TO.C,SW30*%
X83650000Y-38100000D03*
D11*
X88730000Y-38100000D03*
D10*
X93810000Y-38100000D03*
D12*
X84920000Y-35560000D03*
X91270000Y-33020000D03*
%TD*%
D10*
%TO.C,SW4*%
X50960000Y0D03*
D11*
X56040000Y0D03*
D10*
X61120000Y0D03*
D12*
X52230000Y2540000D03*
X58580000Y5080000D03*
%TD*%
D10*
%TO.C,SW5*%
X69640000Y0D03*
D11*
X74720000Y0D03*
D10*
X79800000Y0D03*
D12*
X70910000Y2540000D03*
X77260000Y5080000D03*
%TD*%
D10*
%TO.C,SW10*%
X163040000Y0D03*
D11*
X168120000Y0D03*
D10*
X173200000Y0D03*
D12*
X164310000Y2540000D03*
X170660000Y5080000D03*
%TD*%
D10*
%TO.C,SW36*%
X195730000Y-38100000D03*
D11*
X200810000Y-38100000D03*
D10*
X205890000Y-38100000D03*
D12*
X197000000Y-35560000D03*
X203350000Y-33020000D03*
%TD*%
D10*
%TO.C,SW9*%
X144360000Y0D03*
D11*
X149440000Y0D03*
D10*
X154520000Y0D03*
D12*
X145630000Y2540000D03*
X151980000Y5080000D03*
%TD*%
D10*
%TO.C,SW49*%
X47307500Y-57150000D03*
D11*
X52387500Y-57150000D03*
D10*
X57467500Y-57150000D03*
D12*
X48577500Y-54610000D03*
X54927500Y-52070000D03*
%TD*%
D10*
%TO.C,SW42*%
X135413750Y-57150000D03*
D11*
X140493750Y-57150000D03*
D10*
X145573750Y-57150000D03*
D12*
X136683750Y-54610000D03*
X143033750Y-52070000D03*
%TD*%
D10*
%TO.C,SW24*%
X186390000Y-19050000D03*
D11*
X191470000Y-19050000D03*
D10*
X196550000Y-19050000D03*
D12*
X187660000Y-16510000D03*
X194010000Y-13970000D03*
%TD*%
D10*
%TO.C,SW37*%
X216745000Y-38100000D03*
D11*
X221825000Y-38100000D03*
D10*
X226905000Y-38100000D03*
D12*
X218015000Y-35560000D03*
X224365000Y-33020000D03*
%TD*%
D10*
%TO.C,SW48*%
X23495000Y-57150000D03*
D11*
X28575000Y-57150000D03*
D10*
X33655000Y-57150000D03*
D12*
X24765000Y-54610000D03*
X31115000Y-52070000D03*
%TD*%
D14*
%TO.C,H2*%
X98077500Y-9542500D03*
%TD*%
D10*
%TO.C,SW45*%
X216376250Y-57150000D03*
D11*
X221456250Y-57150000D03*
D10*
X226536250Y-57150000D03*
D12*
X217646250Y-54610000D03*
X223996250Y-52070000D03*
%TD*%
D10*
%TO.C,SW34*%
X158370000Y-38100000D03*
D11*
X163450000Y-38100000D03*
D10*
X168530000Y-38100000D03*
D12*
X159640000Y-35560000D03*
X165990000Y-33020000D03*
%TD*%
D10*
%TO.C,SW26*%
X1925000Y-38100000D03*
D11*
X7005000Y-38100000D03*
D10*
X12085000Y-38100000D03*
D12*
X3195000Y-35560000D03*
X9545000Y-33020000D03*
%TD*%
D10*
%TO.C,SW3*%
X32280000Y0D03*
D11*
X37360000Y0D03*
D10*
X42440000Y0D03*
D12*
X33550000Y2540000D03*
X39900000Y5080000D03*
%TD*%
D10*
%TO.C,SW2*%
X13600000Y0D03*
D11*
X18680000Y0D03*
D10*
X23760000Y0D03*
D12*
X14870000Y2540000D03*
X21220000Y5080000D03*
%TD*%
D10*
%TO.C,SW54*%
X213995000Y-57150000D03*
D11*
X219075000Y-57150000D03*
D10*
X224155000Y-57150000D03*
D12*
X215265000Y-54610000D03*
X221615000Y-52070000D03*
%TD*%
D10*
%TO.C,SW47*%
X-317500Y-57150000D03*
D11*
X4762500Y-57150000D03*
D10*
X9842500Y-57150000D03*
D12*
X952500Y-54610000D03*
X7302500Y-52070000D03*
%TD*%
D14*
%TO.C,H3*%
X128564800Y-28642500D03*
%TD*%
D10*
%TO.C,SW8*%
X125680000Y0D03*
D11*
X130760000Y0D03*
D10*
X135840000Y0D03*
D12*
X126950000Y2540000D03*
X133300000Y5080000D03*
%TD*%
D10*
%TO.C,SW40*%
X40163750Y-57150000D03*
D11*
X45243750Y-57150000D03*
D10*
X50323750Y-57150000D03*
D12*
X41433750Y-54610000D03*
X47783750Y-52070000D03*
%TD*%
D10*
%TO.C,SW17*%
X55630000Y-19050000D03*
D11*
X60710000Y-19050000D03*
D10*
X65790000Y-19050000D03*
D12*
X56900000Y-16510000D03*
X63250000Y-13970000D03*
%TD*%
D10*
%TO.C,SW16*%
X36950000Y-19050000D03*
D11*
X42030000Y-19050000D03*
D10*
X47110000Y-19050000D03*
D12*
X38220000Y-16510000D03*
X44570000Y-13970000D03*
%TD*%
D10*
%TO.C,SW51*%
X125888750Y-57150000D03*
D11*
X130968750Y-57150000D03*
D10*
X136048750Y-57150000D03*
D12*
X127158750Y-54610000D03*
X133508750Y-52070000D03*
%TD*%
D14*
%TO.C,H5*%
X67227500Y-55842400D03*
%TD*%
D13*
%TO.C,S1*%
X152400000Y-64135000D03*
D11*
X152400000Y-48895000D03*
D13*
X128587500Y-64135000D03*
D11*
X128587500Y-48895000D03*
%TD*%
D10*
%TO.C,SW32*%
X121010000Y-38100000D03*
D11*
X126090000Y-38100000D03*
D10*
X131170000Y-38100000D03*
D12*
X122280000Y-35560000D03*
X128630000Y-33020000D03*
%TD*%
D10*
%TO.C,SW44*%
X194945000Y-57150000D03*
D11*
X200025000Y-57150000D03*
D10*
X205105000Y-57150000D03*
D12*
X196215000Y-54610000D03*
X202565000Y-52070000D03*
%TD*%
D14*
%TO.C,H4*%
X20327500Y-44292400D03*
%TD*%
D10*
%TO.C,SW6*%
X88320000Y0D03*
D11*
X93400000Y0D03*
D10*
X98480000Y0D03*
D12*
X89590000Y2540000D03*
X95940000Y5080000D03*
%TD*%
D10*
%TO.C,SW11*%
X181720000Y0D03*
D11*
X186800000Y0D03*
D10*
X191880000Y0D03*
D12*
X182990000Y2540000D03*
X189340000Y5080000D03*
%TD*%
D10*
%TO.C,SW38*%
X-2698750Y-57150000D03*
D11*
X2381250Y-57150000D03*
D10*
X7461250Y-57150000D03*
D12*
X-1428750Y-54610000D03*
X4921250Y-52070000D03*
%TD*%
D10*
%TO.C,SW22*%
X149030000Y-19050000D03*
D11*
X154110000Y-19050000D03*
D10*
X159190000Y-19050000D03*
D12*
X150300000Y-16510000D03*
X156650000Y-13970000D03*
%TD*%
D10*
%TO.C,SW1*%
X-5080000Y0D03*
D11*
X0Y0D03*
D10*
X5080000Y0D03*
D12*
X-3810000Y2540000D03*
X2540000Y5080000D03*
%TD*%
D10*
%TO.C,SW27*%
X27610000Y-38100000D03*
D11*
X32690000Y-38100000D03*
D10*
X37770000Y-38100000D03*
D12*
X28880000Y-35560000D03*
X35230000Y-33020000D03*
%TD*%
D10*
%TO.C,SW12*%
X210560000Y0D03*
D11*
X205480000Y0D03*
D10*
X200400000Y0D03*
D12*
X209290000Y-2540000D03*
X202940000Y-5080000D03*
%TD*%
D10*
%TO.C,SW43*%
X173513750Y-57150000D03*
D11*
X178593750Y-57150000D03*
D10*
X183673750Y-57150000D03*
D12*
X174783750Y-54610000D03*
X181133750Y-52070000D03*
%TD*%
D10*
%TO.C,SW52*%
X166370000Y-57150000D03*
D11*
X171450000Y-57150000D03*
D10*
X176530000Y-57150000D03*
D12*
X167640000Y-54610000D03*
X173990000Y-52070000D03*
%TD*%
D15*
%TO.C,D41*%
X88773000Y-60578000D03*
X88773000Y-57278000D03*
%TD*%
D16*
%TO.C,C11*%
X197030589Y-16049411D03*
X197709411Y-15370589D03*
%TD*%
D15*
%TO.C,D8*%
X133860000Y-3428000D03*
X133860000Y-128000D03*
%TD*%
D16*
%TO.C,C10*%
X197739000Y-16748572D03*
X198417822Y-16069750D03*
%TD*%
D17*
%TO.C,C13*%
X207660589Y-21020589D03*
X208339411Y-21699411D03*
%TD*%
D15*
%TO.C,D27*%
X35790000Y-41528000D03*
X35790000Y-38228000D03*
%TD*%
%TO.C,D12*%
X213614000Y-3428000D03*
X213614000Y-128000D03*
%TD*%
D18*
%TO.C,R10*%
X214035000Y-20661000D03*
X214035000Y-21681000D03*
%TD*%
D15*
%TO.C,D6*%
X96500000Y-3428000D03*
X96500000Y-128000D03*
%TD*%
D16*
%TO.C,C9*%
X204130589Y-9737411D03*
X204809411Y-9058589D03*
%TD*%
D15*
%TO.C,D32*%
X129190000Y-41528000D03*
X129190000Y-38228000D03*
%TD*%
%TO.C,D25*%
X220255000Y-22478000D03*
X220255000Y-19178000D03*
%TD*%
%TO.C,D11*%
X189900000Y-3428000D03*
X189900000Y-128000D03*
%TD*%
%TO.C,D24*%
X194570000Y-22478000D03*
X194570000Y-19178000D03*
%TD*%
%TO.C,D42*%
X143637000Y-60578000D03*
X143637000Y-57278000D03*
%TD*%
%TO.C,D7*%
X115180000Y-3428000D03*
X115180000Y-128000D03*
%TD*%
%TO.C,D37*%
X224925000Y-41528000D03*
X224925000Y-38228000D03*
%TD*%
D19*
%TO.C,C17*%
X191572000Y-7112000D03*
X192532000Y-7112000D03*
%TD*%
D16*
%TO.C,C8*%
X204902000Y-10496000D03*
X205580822Y-9817178D03*
%TD*%
D15*
%TO.C,D38*%
X11674995Y-60578000D03*
X11674995Y-57278000D03*
%TD*%
D20*
%TO.C,U3*%
X198279000Y188000D03*
X198279000Y-762000D03*
X198279000Y-1712000D03*
X195929000Y-1712000D03*
X195929000Y-762000D03*
X195929000Y188000D03*
%TD*%
D15*
%TO.C,D44*%
X203073000Y-60578000D03*
X203073000Y-57278000D03*
%TD*%
D21*
%TO.C,SW46*%
X221861572Y-6994999D03*
X215561572Y-6994999D03*
X221861572Y-10794999D03*
X215561572Y-10794999D03*
%TD*%
D15*
%TO.C,D5*%
X77820000Y-3428000D03*
X77820000Y-128000D03*
%TD*%
%TO.C,D13*%
X227260000Y-3428000D03*
X227260000Y-128000D03*
%TD*%
D22*
%TO.C,Q1*%
X211389000Y-24940500D03*
X209489000Y-24940500D03*
X210439000Y-23065500D03*
%TD*%
D17*
%TO.C,C15*%
X211030178Y-15069178D03*
X211709000Y-15748000D03*
%TD*%
D15*
%TO.C,D39*%
X31675000Y-60578000D03*
X31675000Y-57278000D03*
%TD*%
%TO.C,D36*%
X203910000Y-41528000D03*
X203910000Y-38228000D03*
%TD*%
%TO.C,D30*%
X91830000Y-41528000D03*
X91830000Y-38228000D03*
%TD*%
%TO.C,D22*%
X157210000Y-22478000D03*
X157210000Y-19178000D03*
%TD*%
%TO.C,D3*%
X40460000Y-3428000D03*
X40460000Y-128000D03*
%TD*%
%TO.C,D28*%
X54470000Y-41528000D03*
X54470000Y-38228000D03*
%TD*%
%TO.C,D40*%
X55487500Y-60578000D03*
X55487500Y-57278000D03*
%TD*%
D23*
%TO.C,C19*%
X213685000Y-24003000D03*
X212725000Y-24003000D03*
%TD*%
D15*
%TO.C,D1*%
X3100000Y-3428000D03*
X3100000Y-128000D03*
%TD*%
%TO.C,D15*%
X26450000Y-22478000D03*
X26450000Y-19178000D03*
%TD*%
%TO.C,D43*%
X181737000Y-60578000D03*
X181737000Y-57278000D03*
%TD*%
%TO.C,D19*%
X101170000Y-22478000D03*
X101170000Y-19178000D03*
%TD*%
%TO.C,D31*%
X110510000Y-41528000D03*
X110510000Y-38228000D03*
%TD*%
%TO.C,D17*%
X63810000Y-22478000D03*
X63810000Y-19178000D03*
%TD*%
D24*
%TO.C,R12*%
X212723000Y-25273000D03*
X213743000Y-25273000D03*
%TD*%
D15*
%TO.C,D2*%
X21780000Y-3428000D03*
X21780000Y-128000D03*
%TD*%
D18*
%TO.C,R8*%
X197739000Y4574000D03*
X197739000Y3554000D03*
%TD*%
D25*
%TO.C,R11*%
X211856376Y-11323376D03*
X212577624Y-12044624D03*
%TD*%
D22*
%TO.C,U4*%
X194371000Y-5509500D03*
X192471000Y-5509500D03*
X193421000Y-3634500D03*
%TD*%
D17*
%TO.C,C12*%
X206924589Y-21758589D03*
X207603411Y-22437411D03*
%TD*%
D15*
%TO.C,D18*%
X82490000Y-22478000D03*
X82490000Y-19178000D03*
%TD*%
%TO.C,D21*%
X138530000Y-22478000D03*
X138530000Y-19178000D03*
%TD*%
%TO.C,D20*%
X119850000Y-22478000D03*
X119850000Y-19178000D03*
%TD*%
D26*
%TO.C,U5*%
X209357876Y-17127788D03*
X209004322Y-17481342D03*
X208650769Y-17834895D03*
X208297215Y-18188449D03*
X207943662Y-18542002D03*
X207590109Y-18895555D03*
X207236555Y-19249109D03*
X206883002Y-19602662D03*
X206529449Y-19956215D03*
X206175895Y-20309769D03*
X205822342Y-20663322D03*
X205468788Y-21016876D03*
D27*
X203471212Y-21016876D03*
X203117658Y-20663322D03*
X202764105Y-20309769D03*
X202410551Y-19956215D03*
X202056998Y-19602662D03*
X201703445Y-19249109D03*
X201349891Y-18895555D03*
X200996338Y-18542002D03*
X200642785Y-18188449D03*
X200289231Y-17834895D03*
X199935678Y-17481342D03*
X199582124Y-17127788D03*
D26*
X199582124Y-15130212D03*
X199935678Y-14776658D03*
X200289231Y-14423105D03*
X200642785Y-14069551D03*
X200996338Y-13715998D03*
X201349891Y-13362445D03*
X201703445Y-13008891D03*
X202056998Y-12655338D03*
X202410551Y-12301785D03*
X202764105Y-11948231D03*
X203117658Y-11594678D03*
X203471212Y-11241124D03*
D27*
X205468788Y-11241124D03*
X205822342Y-11594678D03*
X206175895Y-11948231D03*
X206529449Y-12301785D03*
X206883002Y-12655338D03*
X207236555Y-13008891D03*
X207590109Y-13362445D03*
X207943662Y-13715998D03*
X208297215Y-14069551D03*
X208650769Y-14423105D03*
X209004322Y-14776658D03*
X209357876Y-15130212D03*
%TD*%
D15*
%TO.C,D14*%
X5435000Y-22478000D03*
X5435000Y-19178000D03*
%TD*%
%TO.C,D9*%
X152540000Y-3428000D03*
X152540000Y-128000D03*
%TD*%
%TO.C,D4*%
X59140000Y-3428000D03*
X59140000Y-128000D03*
%TD*%
D28*
%TO.C,C16*%
X193040000Y-2131000D03*
X193040000Y-1171000D03*
%TD*%
D15*
%TO.C,D45*%
X228727000Y-60578000D03*
X228727000Y-57278000D03*
%TD*%
%TO.C,D35*%
X185230000Y-41528000D03*
X185230000Y-38228000D03*
%TD*%
%TO.C,D34*%
X166550000Y-41528000D03*
X166550000Y-38228000D03*
%TD*%
%TO.C,D10*%
X171220000Y-3428000D03*
X171220000Y-128000D03*
%TD*%
D18*
%TO.C,R9*%
X209677000Y4574000D03*
X209677000Y3554000D03*
%TD*%
D15*
%TO.C,D33*%
X147870000Y-41528000D03*
X147870000Y-38228000D03*
%TD*%
D29*
%TO.C,J1*%
X200731500Y5834000D03*
X206511500Y5834000D03*
D30*
X200371499Y4388999D03*
X201171499Y4388999D03*
D31*
X202371499Y4388999D03*
X203371499Y4388999D03*
X203871499Y4388999D03*
X204871499Y4388999D03*
D30*
X206071499Y4388999D03*
X206871499Y4388999D03*
X206871499Y4388999D03*
X206071499Y4388999D03*
D31*
X205371499Y4388999D03*
X204371499Y4388999D03*
X202871499Y4388999D03*
X201871499Y4388999D03*
D30*
X201171499Y4388999D03*
X200371499Y4388999D03*
D32*
X199301499Y9483999D03*
D33*
X199301499Y5303999D03*
D32*
X207941499Y9483999D03*
D33*
X207941499Y5303999D03*
%TD*%
D15*
%TO.C,D29*%
X73150000Y-41528000D03*
X73150000Y-38228000D03*
%TD*%
%TO.C,D26*%
X10105000Y-41528000D03*
X10105000Y-38228000D03*
%TD*%
%TO.C,D23*%
X175890000Y-22478000D03*
X175890000Y-19178000D03*
%TD*%
D17*
%TO.C,C14*%
X210268178Y-15831178D03*
X210947000Y-16510000D03*
%TD*%
D34*
%TO.C,F2*%
X194310000Y406500D03*
X194310000Y-1168500D03*
%TD*%
D28*
%TO.C,C18*%
X215051000Y-21653000D03*
X215051000Y-20693000D03*
%TD*%
D15*
%TO.C,D16*%
X45130000Y-22478000D03*
X45130000Y-19178000D03*
%TD*%
M02*
