M48
; DRILL file {KiCad (7.99.0-267-g8440d7258b)} date Sunday, May 07, 2023 at 03:38:39 AM
; FORMAT={-:-/ absolute / inch / decimal}
; #@! TF.CreationDate,2023-05-07T03:38:39-07:00
; #@! TF.GenerationSoftware,Kicad,Pcbnew,(7.99.0-267-g8440d7258b)
; #@! TF.FileFunction,Plated,1,2,PTH
FMAT,2
INCH
; #@! TA.AperFunction,Plated,PTH,ViaDrill
T1C0.0157
; #@! TA.AperFunction,Plated,PTH,ComponentDrill
T2C0.0236
; #@! TA.AperFunction,Plated,PTH,ComponentDrill
T3C0.0600
; #@! TA.AperFunction,Plated,PTH,ComponentDrill
T4C0.0866
%
G90
G05
T1
X7.55Y-0.135
X7.5611Y-0.0839
X7.7Y-0.215
X7.725Y-0.885
X7.73Y-0.66
X7.755Y-0.35
X7.755Y-0.575
X7.785Y0.22
X7.8366Y-0.2684
X7.875Y-1.04
X7.88Y-0.065
X7.885Y-0.115
X7.99Y-0.305
X8.025Y-0.345
X8.06Y-1.04
X8.09Y-0.33
X8.1541Y-0.9146
X8.205Y-0.9135
X8.245Y-1.01
X8.255Y0.225
X8.31Y-0.69
X8.335Y-0.57
X8.3709Y-0.885
X8.395Y-0.5
X8.455Y-0.995
X8.51Y-0.845
X8.8Y-0.675
X8.8Y-0.9135
X8.87Y-0.85
X8.925Y-0.795
T3
X-0.15Y0.1
X-0.0581Y-0.65
X-0.0563Y-2.15
X0.0375Y-2.15
X0.1Y0.2
X0.1258Y-1.4
X0.1919Y-0.55
X0.1938Y-2.05
X0.2875Y-2.05
X0.3758Y-1.3
X0.5854Y0.1
X0.7693Y-0.65
X0.7875Y-2.15
X0.8354Y0.2
X0.975Y-2.15
X1.0193Y-0.55
X1.0375Y-2.05
X1.137Y-1.4
X1.225Y-2.05
X1.3209Y0.1
X1.387Y-1.3
X1.5047Y-0.65
X1.5709Y0.2
X1.6312Y-2.15
X1.7547Y-0.55
X1.8724Y-1.4
X1.8812Y-2.05
X1.9125Y-2.15
X2.0563Y0.1
X2.1224Y-1.3
X2.1625Y-2.05
X2.2402Y-0.65
X2.3063Y0.2
X2.4902Y-0.55
X2.6079Y-1.4
X2.7917Y0.1
X2.8579Y-1.3
X2.9756Y-0.65
X3.0417Y0.2
X3.225Y-2.15
X3.2256Y-0.55
X3.3433Y-1.4
X3.475Y-2.05
X3.5272Y0.1
X3.5933Y-1.3
X3.711Y-0.65
X3.7772Y0.2
X3.961Y-0.55
X4.0787Y-1.4
X4.2626Y0.1
X4.3287Y-1.3
X4.4465Y-0.65
X4.5126Y0.2
X4.6965Y-0.55
X4.8142Y-1.4
X4.998Y0.1
X5.0062Y-2.15
X5.0642Y-1.3
X5.1787Y-0.65
X5.248Y0.2
X5.2562Y-2.05
X5.3812Y-2.15
X5.4287Y-0.55
X5.5496Y-1.4
X5.6312Y-2.05
X5.7335Y0.1
X5.7996Y-1.3
X5.9173Y-0.65
X5.9835Y0.2
X6.1673Y-0.55
X6.285Y-1.4
X6.4689Y0.1
X6.535Y-1.3
X6.6Y-2.15
X6.6528Y-0.65
X6.7189Y0.2
X6.85Y-2.05
X6.8812Y-2.15
X6.9028Y-0.55
X7.0205Y-1.4
X7.1312Y-2.05
X7.2043Y0.1
X7.2705Y-1.3
X7.3882Y-0.65
X7.4543Y0.2
X7.5375Y-2.15
X7.6382Y-0.55
X7.725Y-2.15
X7.7559Y-1.4
X7.7875Y-2.05
X7.975Y-2.05
X7.9898Y-0.2
X8.0059Y-1.3
X8.2398Y-0.1
X8.3994Y-0.65
X8.475Y-2.15
X8.5687Y-2.15
X8.5833Y-1.4
X8.6494Y-0.55
X8.6752Y0.1
X8.725Y-2.05
X8.8187Y-2.05
X8.8333Y-1.3
X8.9252Y0.2
T4
X0.8003Y-1.7438
X0.8613Y-0.3757
X2.6468Y-2.1985
X3.8613Y-0.3757
X5.0616Y-1.1277
T2
G00X7.8465Y0.3852
M15
G01X7.8465Y0.3616
M16
G05
G00X7.8465Y0.2305
M15
G01X7.8465Y0.1872
M16
G05
G00X8.1867Y0.3852
M15
G01X8.1867Y0.3616
M16
G05
G00X8.1867Y0.2305
M15
G01X8.1867Y0.1872
M16
G05
T0
M30
